<svg width="260" height="60" viewBox="0 0 260 60" fill="none" xmlns="http://www.w3.org/2000/svg">
<path d="M51.9607 59.6622V30.1041H66.4019C70.1178 30.1041 72.9047 30.8078 74.7627 32.2153C76.6488 33.6229 77.5918 35.4808 77.5918 37.7892C77.5918 39.3374 77.2118 40.6887 76.4517 41.8428C75.6916 42.9689 74.6501 43.8415 73.327 44.4608C72.0039 45.0802 70.4838 45.3898 68.7666 45.3898L69.5689 43.6586C71.4268 43.6586 73.0736 43.9682 74.5093 44.5875C75.945 45.1787 77.0569 46.0654 77.8451 47.2478C78.6615 48.4301 79.0697 49.8798 79.0697 51.597C79.0697 54.1306 78.0704 56.1152 76.0717 57.5509C74.073 58.9584 71.1312 59.6622 67.2465 59.6622H51.9607ZM58.7591 54.5106H66.7397C68.5132 54.5106 69.8504 54.2291 70.7512 53.6661C71.6802 53.0749 72.1447 52.146 72.1447 50.8792C72.1447 49.6406 71.6802 48.7257 70.7512 48.1345C69.8504 47.5152 68.5132 47.2055 66.7397 47.2055H58.2523V42.2229H65.5574C67.2183 42.2229 68.4851 41.9414 69.3578 41.3784C70.2586 40.7872 70.709 39.9005 70.709 38.7181C70.709 37.564 70.2586 36.7054 69.3578 36.1424C68.4851 35.5512 67.2183 35.2556 65.5574 35.2556H58.7591V54.5106Z" fill="#2F2F2F"/>
<path d="M97.7187 59.6622V55.2284L97.2964 54.2572V46.3188C97.2964 44.9113 96.8601 43.8134 95.9874 43.0252C95.1429 42.237 93.8339 41.8428 92.0604 41.8428C90.8499 41.8428 89.6535 42.0399 88.4712 42.434C87.3171 42.8 86.3318 43.3067 85.5154 43.9541L83.1508 39.3515C84.3894 38.4789 85.8814 37.8032 87.6267 37.3247C89.372 36.8461 91.1455 36.6068 92.9472 36.6068C96.4097 36.6068 99.0981 37.4232 101.012 39.0559C102.927 40.6887 103.884 43.2363 103.884 46.6988V59.6622H97.7187ZM90.7936 60C89.0202 60 87.5 59.7044 86.2332 59.1132C84.9665 58.4939 83.9953 57.6635 83.3197 56.6219C82.6441 55.5803 82.3062 54.4121 82.3062 53.1172C82.3062 51.7659 82.63 50.5836 83.2774 49.5702C83.9531 48.5568 85.0087 47.7685 86.4444 47.2055C87.8801 46.6144 89.7521 46.3188 92.0604 46.3188H98.0987V50.1613H92.7783C91.23 50.1613 90.1603 50.4147 89.5691 50.9214C89.0061 51.4281 88.7246 52.0615 88.7246 52.8216C88.7246 53.6661 89.0483 54.3417 89.6958 54.8484C90.3714 55.327 91.2863 55.5662 92.4405 55.5662C93.5383 55.5662 94.5236 55.3129 95.3963 54.8062C96.2689 54.2713 96.9023 53.4972 97.2964 52.4838L98.3099 55.524C97.8313 56.9879 96.9586 58.0998 95.6918 58.8599C94.4251 59.6199 92.7923 60 90.7936 60Z" fill="#2F2F2F"/>
<path d="M123.273 60C121.275 60 119.557 59.5777 118.122 58.7332C116.686 57.8887 115.588 56.6078 114.828 54.8906C114.068 53.1453 113.688 50.9496 113.688 48.3034C113.688 45.6291 114.082 43.4334 114.87 41.7162C115.687 39.999 116.813 38.7181 118.248 37.8736C119.684 37.0291 121.359 36.6068 123.273 36.6068C125.413 36.6068 127.327 37.0854 129.016 38.0425C130.733 38.9996 132.084 40.3509 133.07 42.0962C134.083 43.8415 134.59 45.9106 134.59 48.3034C134.59 50.6681 134.083 52.723 133.07 54.4684C132.084 56.2137 130.733 57.579 129.016 58.5643C127.327 59.5214 125.413 60 123.273 60ZM109.845 59.6622V28.3306H116.433V41.5473L116.01 48.2612L116.137 55.0173V59.6622H109.845ZM122.133 54.5951C123.231 54.5951 124.202 54.3417 125.047 53.835C125.919 53.3283 126.609 52.6104 127.116 51.6815C127.651 50.7244 127.918 49.5983 127.918 48.3034C127.918 46.9803 127.651 45.8543 127.116 44.9253C126.609 43.9964 125.919 43.2785 125.047 42.7718C124.202 42.2651 123.231 42.0117 122.133 42.0117C121.035 42.0117 120.05 42.2651 119.177 42.7718C118.305 43.2785 117.615 43.9964 117.108 44.9253C116.602 45.8543 116.348 46.9803 116.348 48.3034C116.348 49.5983 116.602 50.7244 117.108 51.6815C117.615 52.6104 118.305 53.3283 119.177 53.835C120.05 54.3417 121.035 54.5951 122.133 54.5951Z" fill="#2F2F2F"/>
<path d="M152.563 59.6622V55.2284L152.141 54.2572V46.3188C152.141 44.9113 151.704 43.8134 150.832 43.0252C149.987 42.237 148.678 41.8428 146.905 41.8428C145.694 41.8428 144.498 42.0399 143.315 42.434C142.161 42.8 141.176 43.3067 140.36 43.9541L137.995 39.3515C139.234 38.4789 140.726 37.8032 142.471 37.3247C144.216 36.8461 145.99 36.6068 147.791 36.6068C151.254 36.6068 153.942 37.4232 155.856 39.0559C157.771 40.6887 158.728 43.2363 158.728 46.6988V59.6622H152.563ZM145.638 60C143.864 60 142.344 59.7044 141.077 59.1132C139.811 58.4939 138.839 57.6635 138.164 56.6219C137.488 55.5803 137.15 54.4121 137.15 53.1172C137.15 51.7659 137.474 50.5836 138.122 49.5702C138.797 48.5568 139.853 47.7685 141.289 47.2055C142.724 46.6144 144.596 46.3188 146.905 46.3188H152.943V50.1613H147.622C146.074 50.1613 145.004 50.4147 144.413 50.9214C143.85 51.4281 143.569 52.0615 143.569 52.8216C143.569 53.6661 143.892 54.3417 144.54 54.8484C145.216 55.327 146.13 55.5662 147.285 55.5662C148.382 55.5662 149.368 55.3129 150.24 54.8062C151.113 54.2713 151.746 53.4972 152.141 52.4838L153.154 55.524C152.675 56.9879 151.803 58.0998 150.536 58.8599C149.269 59.6199 147.636 60 145.638 60Z" fill="#2F2F2F"/>
<path d="M178.117 60C176.119 60 174.402 59.5777 172.966 58.7332C171.53 57.8887 170.432 56.6078 169.672 54.8906C168.912 53.1453 168.532 50.9496 168.532 48.3034C168.532 45.6291 168.926 43.4334 169.714 41.7162C170.531 39.999 171.657 38.7181 173.093 37.8736C174.528 37.0291 176.203 36.6068 178.117 36.6068C180.257 36.6068 182.171 37.0854 183.86 38.0425C185.577 38.9996 186.929 40.3509 187.914 42.0962C188.927 43.8415 189.434 45.9106 189.434 48.3034C189.434 50.6681 188.927 52.723 187.914 54.4684C186.929 56.2137 185.577 57.579 183.86 58.5643C182.171 59.5214 180.257 60 178.117 60ZM164.69 59.6622V28.3306H171.277V41.5473L170.855 48.2612L170.981 55.0173V59.6622H164.69ZM176.977 54.5951C178.075 54.5951 179.046 54.3417 179.891 53.835C180.764 53.3283 181.453 52.6104 181.96 51.6815C182.495 50.7244 182.762 49.5983 182.762 48.3034C182.762 46.9803 182.495 45.8543 181.96 44.9253C181.453 43.9964 180.764 43.2785 179.891 42.7718C179.046 42.2651 178.075 42.0117 176.977 42.0117C175.879 42.0117 174.894 42.2651 174.021 42.7718C173.149 43.2785 172.459 43.9964 171.952 44.9253C171.446 45.8543 171.192 46.9803 171.192 48.3034C171.192 49.5983 171.446 50.7244 171.952 51.6815C172.459 52.6104 173.149 53.3283 174.021 53.835C174.894 54.3417 175.879 54.5951 176.977 54.5951Z" fill="#2F2F2F"/>
<path d="M203.429 60C201.543 60 199.854 59.634 198.362 58.9021C196.898 58.1702 195.758 57.0582 194.941 55.5662C194.125 54.0461 193.717 52.1178 193.717 49.7813V36.9446H200.304V48.8101C200.304 50.6962 200.698 52.0897 201.486 52.9905C202.303 53.8631 203.443 54.2995 204.907 54.2995C205.92 54.2995 206.821 54.0883 207.609 53.6661C208.397 53.2157 209.017 52.5401 209.467 51.6392C209.918 50.7103 210.143 49.5561 210.143 48.1767V36.9446H216.73V59.6622H210.481V53.4127L211.621 55.2284C210.861 56.8049 209.735 58.0013 208.243 58.8176C206.779 59.6059 205.174 60 203.429 60Z" fill="#2F2F2F"/>
<path d="M222.833 59.6622V36.9446H229.124V43.363L228.238 41.505C228.913 39.9005 229.997 38.69 231.489 37.8736C232.981 37.0291 234.797 36.6068 236.936 36.6068V42.6874C236.655 42.6592 236.401 42.6451 236.176 42.6451C235.951 42.617 235.711 42.6029 235.458 42.6029C233.656 42.6029 232.193 43.1237 231.067 44.1653C229.969 45.1787 229.42 46.7692 229.42 48.9368V59.6622H222.833Z" fill="#2F2F2F"/>
<path d="M253.303 59.6622V55.2284L252.881 54.2572V46.3188C252.881 44.9113 252.444 43.8134 251.572 43.0252C250.727 42.237 249.418 41.8428 247.645 41.8428C246.434 41.8428 245.238 42.0399 244.055 42.434C242.901 42.8 241.916 43.3067 241.1 43.9541L238.735 39.3515C239.974 38.4789 241.466 37.8032 243.211 37.3247C244.956 36.8461 246.73 36.6068 248.531 36.6068C251.994 36.6068 254.682 37.4232 256.596 39.0559C258.511 40.6887 259.468 43.2363 259.468 46.6988V59.6622H253.303ZM246.378 60C244.604 60 243.084 59.7044 241.817 59.1132C240.551 58.4939 239.579 57.6635 238.904 56.6219C238.228 55.5803 237.89 54.4121 237.89 53.1172C237.89 51.7659 238.214 50.5836 238.862 49.5702C239.537 48.5568 240.593 47.7685 242.029 47.2055C243.464 46.6144 245.336 46.3188 247.645 46.3188H253.683V50.1613H248.362C246.814 50.1613 245.744 50.4147 245.153 50.9214C244.59 51.4281 244.309 52.0615 244.309 52.8216C244.309 53.6661 244.632 54.3417 245.28 54.8484C245.956 55.327 246.87 55.5662 248.025 55.5662C249.123 55.5662 250.108 55.3129 250.98 54.8062C251.853 54.2713 252.486 53.4972 252.881 52.4838L253.894 55.524C253.415 56.9879 252.543 58.0998 251.276 58.8599C250.009 59.6199 248.376 60 246.378 60Z" fill="#2F2F2F"/>
<path d="M0 3.09439C0 1.38541 1.38541 0 3.09439 0H22.2796C23.9886 0 25.374 1.38541 25.374 3.09439V22.2796C25.374 23.9886 23.9886 25.374 22.2796 25.374H3.09439C1.38541 25.374 0 23.9886 0 22.2796V3.09439Z" fill="#F2F2F2"/>
<path d="M0 31.4367C0 29.7278 1.38541 28.3423 3.09439 28.3423H28.0558C29.7648 28.3423 31.1502 29.7278 31.1502 31.4367V56.3982C31.1502 58.1072 29.7648 59.4926 28.0558 59.4926H3.09439C1.38541 59.4926 0 58.1072 0 56.3982V31.4367Z" fill="#289ADE"/>
<g filter="url(#filter0_d_438_999)">
<rect x="11.7589" y="7.63281" width="2.06293" height="9.28318" fill="white"/>
</g>
<g filter="url(#filter1_d_438_999)">
<rect x="10.3148" y="38.2444" width="2.06293" height="9.28318" fill="white"/>
</g>
<g filter="url(#filter2_d_438_999)">
<rect x="18.979" y="38.2444" width="2.06293" height="9.28318" fill="white"/>
</g>
<defs>
<filter id="filter0_d_438_999" x="10.7589" y="5.63281" width="6.06299" height="13.2832" filterUnits="userSpaceOnUse" color-interpolation-filters="sRGB">
<feFlood flood-opacity="0" result="BackgroundImageFix"/>
<feColorMatrix in="SourceAlpha" type="matrix" values="0 0 0 0 0 0 0 0 0 0 0 0 0 0 0 0 0 0 127 0" result="hardAlpha"/>
<feOffset dx="1"/>
<feGaussianBlur stdDeviation="1"/>
<feComposite in2="hardAlpha" operator="out"/>
<feColorMatrix type="matrix" values="0 0 0 0 0 0 0 0 0 0 0 0 0 0 0 0 0 0 0.32 0"/>
<feBlend mode="normal" in2="BackgroundImageFix" result="effect1_dropShadow_438_999"/>
<feBlend mode="normal" in="SourceGraphic" in2="effect1_dropShadow_438_999" result="shape"/>
</filter>
<filter id="filter1_d_438_999" x="9.31482" y="36.2444" width="6.06299" height="13.2832" filterUnits="userSpaceOnUse" color-interpolation-filters="sRGB">
<feFlood flood-opacity="0" result="BackgroundImageFix"/>
<feColorMatrix in="SourceAlpha" type="matrix" values="0 0 0 0 0 0 0 0 0 0 0 0 0 0 0 0 0 0 127 0" result="hardAlpha"/>
<feOffset dx="1"/>
<feGaussianBlur stdDeviation="1"/>
<feComposite in2="hardAlpha" operator="out"/>
<feColorMatrix type="matrix" values="0 0 0 0 0 0 0 0 0 0 0 0 0 0 0 0 0 0 0.46 0"/>
<feBlend mode="normal" in2="BackgroundImageFix" result="effect1_dropShadow_438_999"/>
<feBlend mode="normal" in="SourceGraphic" in2="effect1_dropShadow_438_999" result="shape"/>
</filter>
<filter id="filter2_d_438_999" x="17.979" y="36.2444" width="6.06299" height="13.2832" filterUnits="userSpaceOnUse" color-interpolation-filters="sRGB">
<feFlood flood-opacity="0" result="BackgroundImageFix"/>
<feColorMatrix in="SourceAlpha" type="matrix" values="0 0 0 0 0 0 0 0 0 0 0 0 0 0 0 0 0 0 127 0" result="hardAlpha"/>
<feOffset dx="1"/>
<feGaussianBlur stdDeviation="1"/>
<feComposite in2="hardAlpha" operator="out"/>
<feColorMatrix type="matrix" values="0 0 0 0 0 0 0 0 0 0 0 0 0 0 0 0 0 0 0.46 0"/>
<feBlend mode="normal" in2="BackgroundImageFix" result="effect1_dropShadow_438_999"/>
<feBlend mode="normal" in="SourceGraphic" in2="effect1_dropShadow_438_999" result="shape"/>
</filter>
</defs>
</svg>
