<svg width="10" height="10" viewBox="0 0 10 10" fill="none" xmlns="http://www.w3.org/2000/svg">
<g id="Frame" clip-path="url(#clip0_483_879)">
<g id="Group 556">
<path id="Vector" d="M7.33941 0H2.03562C1.99303 8.83842e-06 1.95218 0.0171134 1.92205 0.0475526C1.89193 0.0779918 1.87501 0.119274 1.875 0.162321V9.83768C1.87501 9.88073 1.89193 9.92201 1.92205 9.95245C1.95218 9.98289 1.99303 9.99999 2.03562 10H7.33938C7.38197 9.99999 7.42282 9.98289 7.45294 9.95245C7.48307 9.92201 7.49999 9.88073 7.5 9.83768V0.162321C7.5 0.141006 7.49585 0.119899 7.48778 0.100206C7.47972 0.0805123 7.46789 0.0626183 7.45298 0.0475449C7.43806 0.0324716 7.42036 0.0205145 7.40087 0.0123566C7.38139 0.00419884 7.3605 -4.49728e-10 7.33941 0Z" fill="#289ADE" fill-opacity="0.2"/>
<path id="Vector_2" d="M3.10232 4.37438H2.48975C2.44471 4.37438 2.40151 4.35657 2.36966 4.32486C2.33781 4.29315 2.31992 4.25015 2.31992 4.20531V1.71003C2.31992 1.66519 2.33781 1.62218 2.36966 1.59047C2.40151 1.55876 2.44471 1.54095 2.48975 1.54095H3.10232C3.14737 1.54095 3.19056 1.55876 3.22241 1.59047C3.25426 1.62218 3.27216 1.66519 3.27216 1.71003V4.20531C3.27216 4.25015 3.25426 4.29315 3.22241 4.32486C3.19056 4.35657 3.14737 4.37438 3.10232 4.37438ZM4.8511 4.20534V1.71006C4.8511 1.66522 4.83321 1.62221 4.80136 1.59051C4.76951 1.5588 4.72631 1.54098 4.68127 1.54098H4.0687C4.02365 1.54098 3.98046 1.5588 3.94861 1.59051C3.91676 1.62221 3.89886 1.66522 3.89886 1.71006V4.20534C3.89886 4.25018 3.91676 4.29319 3.94861 4.3249C3.98046 4.3566 4.02365 4.37442 4.0687 4.37442H4.68127C4.72631 4.37441 4.7695 4.35659 4.80135 4.32489C4.8332 4.29318 4.85109 4.25018 4.8511 4.20534ZM6.43008 4.20534V1.71006C6.43008 1.66522 6.41219 1.62221 6.38034 1.59051C6.34849 1.5588 6.30529 1.54098 6.26025 1.54098H5.64768C5.60263 1.54098 5.55944 1.5588 5.52759 1.59051C5.49574 1.62221 5.47784 1.66522 5.47784 1.71006V4.20534C5.47784 4.25018 5.49574 4.29319 5.52759 4.3249C5.55944 4.3566 5.60263 4.37442 5.64768 4.37442H6.26025C6.30529 4.37441 6.34848 4.35659 6.38033 4.32489C6.41218 4.29318 6.43008 4.25018 6.43008 4.20534ZM3.27216 9.20592V6.71064C3.27216 6.6658 3.25426 6.6228 3.22241 6.59109C3.19056 6.55938 3.14737 6.54157 3.10232 6.54157H2.48975C2.44471 6.54157 2.40151 6.55938 2.36966 6.59109C2.33781 6.6228 2.31992 6.6658 2.31992 6.71064V9.20592C2.31992 9.25077 2.33781 9.29377 2.36966 9.32548C2.40151 9.35719 2.44471 9.375 2.48975 9.375H3.10232C3.14736 9.37499 3.19056 9.35718 3.2224 9.32547C3.25425 9.29376 3.27215 9.25076 3.27216 9.20592ZM4.8511 9.20592V6.71064C4.8511 6.6658 4.83321 6.6228 4.80136 6.59109C4.76951 6.55938 4.72631 6.54157 4.68127 6.54157H4.0687C4.02365 6.54157 3.98046 6.55938 3.94861 6.59109C3.91676 6.6228 3.89886 6.6658 3.89886 6.71064V9.20592C3.89886 9.25077 3.91676 9.29377 3.94861 9.32548C3.98046 9.35719 4.02365 9.375 4.0687 9.375H4.68127C4.72631 9.37499 4.7695 9.35718 4.80135 9.32547C4.8332 9.29376 4.85109 9.25076 4.8511 9.20592ZM6.43008 9.20592V6.71064C6.43008 6.6658 6.41219 6.6228 6.38034 6.59109C6.34849 6.55938 6.30529 6.54157 6.26025 6.54157H5.64768C5.60263 6.54157 5.55944 6.55938 5.52759 6.59109C5.49574 6.6228 5.47784 6.6658 5.47784 6.71064V9.20592C5.47784 9.25077 5.49574 9.29377 5.52759 9.32548C5.55944 9.35719 5.60263 9.375 5.64768 9.375H6.26025C6.30529 9.37499 6.34848 9.35718 6.38033 9.32547C6.41218 9.29376 6.43008 9.25076 6.43008 9.20592ZM7.5 0.593504V0.173598C7.5 0.127557 7.48163 0.0834016 7.44893 0.0508457C7.41622 0.0182899 7.37187 0 7.32562 0H1.42438C1.37813 0 1.33378 0.0182899 1.30107 0.0508457C1.26837 0.0834016 1.25 0.127557 1.25 0.173598V0.593504C1.25 0.639545 1.26837 0.6837 1.30107 0.716256C1.33378 0.748811 1.37813 0.767101 1.42438 0.767101H7.32562C7.34852 0.767106 7.3712 0.762619 7.39236 0.753896C7.41352 0.745174 7.43274 0.732387 7.44894 0.716266C7.46513 0.700145 7.47797 0.681006 7.48674 0.659942C7.4955 0.638878 7.5 0.616302 7.5 0.593504ZM7.5 5.62651V5.2066C7.5 5.16056 7.48163 5.11641 7.44893 5.08385C7.41622 5.0513 7.37187 5.03301 7.32562 5.03301H1.42438C1.37813 5.03301 1.33378 5.0513 1.30107 5.08385C1.26837 5.11641 1.25 5.16056 1.25 5.2066V5.62651C1.25 5.67255 1.26837 5.71671 1.30107 5.74926C1.33378 5.78182 1.37813 5.80011 1.42438 5.80011H7.32562C7.34852 5.80011 7.3712 5.79563 7.39236 5.7869C7.41352 5.77818 7.43274 5.76539 7.44894 5.74927C7.46513 5.73315 7.47797 5.71401 7.48674 5.69295C7.4955 5.67189 7.5 5.64931 7.5 5.62651Z" fill="#289ADE"/>
<path id="Vector_3" d="M2.30459 10H2.30066C2.24883 10 2.19913 9.98763 2.16248 9.96562C2.12584 9.9436 2.10525 9.91374 2.10525 9.8826V9.4924C2.10525 9.46126 2.12584 9.4314 2.16248 9.40938C2.19913 9.38737 2.24883 9.375 2.30066 9.375H2.30459C2.35642 9.375 2.40612 9.38737 2.44277 9.40938C2.47941 9.4314 2.5 9.46126 2.5 9.4924V9.8826C2.49999 9.91374 2.4794 9.9436 2.44276 9.96561C2.40611 9.98762 2.35642 9.99999 2.30459 10ZM0.39475 9.8826V9.4924C0.39475 9.46126 0.374163 9.4314 0.337517 9.40938C0.300871 9.38737 0.251169 9.375 0.199344 9.375H0.195407C0.143582 9.375 0.093879 9.38737 0.0572331 9.40938C0.0205873 9.4314 0 9.46126 0 9.4924V9.8826C0 9.91374 0.0205873 9.9436 0.0572331 9.96562C0.093879 9.98763 0.143582 10 0.195407 10H0.199344C0.251166 9.99999 0.300864 9.98762 0.337508 9.96561C0.374152 9.9436 0.394742 9.91374 0.39475 9.8826Z" fill="#289ADE"/>
<path id="Vector_4" d="M0 8.125H2.5V9.375H0V8.125Z" fill="#E5E4DF"/>
<path id="Vector_5" d="M1.55045 9.375L2.5 8.16429V8.85542L2.08896 9.375H1.55045ZM0.53 9.375H1.06854L2.02032 8.125H1.48179L0.53 9.375ZM0.461331 8.125L0 8.72521V9.375H0.0480845L0.999902 8.125H0.461331Z" fill="#289ADE"/>
<path id="Vector_6" d="M9.99399 5.68656C9.9938 5.68362 9.99715 5.68065 9.99658 5.67775C9.99607 5.6752 9.9969 5.6728 9.99613 5.67035C9.99555 5.6685 9.99603 5.66662 9.99527 5.6648C9.99425 5.66221 9.99307 5.6597 9.99172 5.65727C9.99089 5.6558 9.99047 5.65427 9.98954 5.65286C9.9845 5.64527 9.978 5.63874 9.97043 5.63366C9.96867 5.63248 9.96681 5.63168 9.96499 5.63069C9.96285 5.62954 9.96083 5.62823 9.9586 5.62731C9.95626 5.62635 9.95386 5.62578 9.95144 5.62508C9.94948 5.6245 9.94766 5.62737 9.94565 5.62699C9.94117 5.6261 9.93663 5.62922 9.93206 5.62922H8.51908C8.51454 5.62922 8.50997 5.6261 8.5055 5.62699C8.50348 5.62737 8.50166 5.62632 8.49971 5.62689C8.49731 5.6276 8.49488 5.62725 8.49255 5.6282C8.49028 5.62913 8.48823 5.62996 8.48612 5.63114C8.4843 5.63213 8.48238 5.6327 8.48062 5.63388C8.47301 5.63893 8.46647 5.64542 8.46138 5.65299C8.46045 5.6544 8.45981 5.65586 8.45898 5.65733C8.45757 5.65979 8.4561 5.66218 8.45502 5.66486C8.45428 5.66668 8.45386 5.66853 8.45329 5.67038C8.45252 5.67284 8.45159 5.6752 8.45108 5.67778C8.45051 5.68069 8.45198 5.68365 8.45175 5.68659C8.45166 5.68815 8.45287 5.68962 8.45287 5.69121V7.033H7.10604C7.10149 7.03286 7.09694 7.03317 7.09245 7.03392C7.09044 7.03431 7.08862 7.03485 7.08667 7.03542C7.08427 7.03612 7.08184 7.03657 7.07951 7.03753C7.07724 7.03845 7.07519 7.0397 7.07308 7.04085C7.07126 7.04183 7.06934 7.04263 7.06758 7.04378C7.05997 7.04886 7.05343 7.05539 7.04834 7.06299C7.04741 7.06439 7.04677 7.06592 7.04594 7.06739C7.04453 7.06985 7.04306 7.07227 7.04197 7.07492C7.04124 7.07674 7.04082 7.07862 7.04025 7.08047C7.03948 7.08293 7.03855 7.08532 7.03804 7.08787C7.03747 7.09078 7.0421 7.09374 7.04191 7.09668C7.04181 7.09824 7.04619 7.09971 7.04619 7.1013V8.43677H5.69303C5.68849 8.43677 5.68392 8.43993 5.67944 8.44082C5.67743 8.44121 5.67561 8.44331 5.67366 8.44389C5.67126 8.44459 5.66883 8.44583 5.6665 8.44679C5.66423 8.44771 5.66218 8.44934 5.66007 8.45052C5.65825 8.45151 5.65633 8.4525 5.65457 8.45365C5.64695 8.45876 5.64041 8.46532 5.63533 8.47295C5.6344 8.47435 5.63376 8.47592 5.63293 8.47738C5.63152 8.47984 5.63005 8.4823 5.62896 8.48495C5.62823 8.48676 5.62781 8.48865 5.62724 8.4905C5.62647 8.49295 5.62554 8.49535 5.62503 8.4979C5.62445 8.5008 5.63226 8.50377 5.63206 8.5067C5.63197 8.50827 5.63951 8.50974 5.63951 8.51133V9.92142C5.63951 9.92302 5.63197 9.92448 5.63206 9.92605C5.63226 9.92898 5.62842 9.93195 5.629 9.93485C5.62951 9.93744 5.62845 9.93983 5.62922 9.94229C5.62979 9.94414 5.62922 9.94602 5.62995 9.94781C5.63104 9.95045 5.63203 9.95288 5.63344 9.95537C5.63427 9.9568 5.63462 9.95833 5.63558 9.95974C5.64066 9.96733 5.64709 9.97387 5.6547 9.97898C5.65643 9.98012 5.65822 9.98089 5.66001 9.98188C5.66218 9.98306 5.66423 9.98437 5.66653 9.98532C5.66883 9.98628 5.67119 9.98682 5.67353 9.98749C5.67551 9.98807 5.6774 9.99356 5.67944 9.99394C5.68392 9.99483 5.68846 10 5.693 10H9.932C9.93654 10 9.94108 9.99483 9.94555 9.99394C9.9476 9.99352 9.94949 9.99043 9.95147 9.98982C9.95383 9.98912 9.9562 9.9874 9.9585 9.98647C9.9608 9.98552 9.96288 9.98363 9.96505 9.98242C9.96685 9.98143 9.9687 9.98038 9.97043 9.97923C9.97803 9.97416 9.98459 9.96746 9.98967 9.95986C9.9906 9.95846 9.99124 9.95687 9.99204 9.95543C9.99344 9.95294 9.99492 9.95049 9.99603 9.94784C9.99677 9.94605 9.99715 9.94414 9.99776 9.94229C9.99853 9.93983 9.99945 9.93744 9.99997 9.93485C10.0005 9.93195 9.99367 9.92898 9.99389 9.92605C9.99399 9.92448 9.98737 9.92302 9.98737 9.92142V5.69118C9.98747 5.68962 9.99408 5.68812 9.99399 5.68656ZM5.76743 8.67838L6.30657 9.21641L5.76743 9.75444V8.67838ZM7.91376 9.21641L8.45291 8.67838V9.75444L7.91376 9.21641ZM6.50708 9.21641L7.04623 8.67838V9.75444L6.50708 9.21641ZM8.58079 8.34434V7.26832L9.1199 7.80632L8.58079 8.34434ZM9.22559 7.89877L9.7647 8.43677H8.68645L9.22559 7.89877ZM8.68648 7.16061H9.76473L9.22562 7.69861L8.68648 7.16061ZM8.68648 7.033L9.22559 6.49497L9.7647 7.033H8.68648ZM8.45291 8.34434L7.91376 7.80635L8.45291 7.26832V8.34434ZM8.35172 8.43677H7.27347L7.81261 7.89877L8.35172 8.43677ZM7.71325 9.21641L7.17411 9.75444V8.67838L7.71325 9.21641ZM7.27344 8.59629H8.35172L7.81258 9.13432L7.27344 8.59629ZM9.1199 9.21641L8.58079 9.75444V8.67841L9.1199 9.21641ZM8.68648 8.59629H9.76473L9.22562 9.13432L8.68648 8.59629ZM9.32048 7.80632L9.85959 7.26832V8.34434L9.32048 7.80632ZM9.32048 6.39626L9.85959 5.85823V6.93425L9.32048 6.39626ZM9.22559 6.29487L8.68648 5.75684H9.76473L9.22559 6.29487ZM9.1199 6.39626L8.58079 6.93425V5.85823L9.1199 6.39626ZM7.81258 7.69861L7.27344 7.16061H8.35169L7.81258 7.69861ZM7.71325 7.80632L7.17411 8.34434V7.26832L7.71325 7.80632ZM6.39957 9.13432L5.86043 8.59629H6.93871L6.39957 9.13432ZM6.39957 9.30252L6.93871 9.84054H5.86043L6.39957 9.30252ZM7.81258 9.30252L8.35172 9.84054H7.27344L7.81258 9.30252ZM9.22559 9.30252L9.7647 9.84054H8.68645L9.22559 9.30252ZM9.32048 9.21641L9.85959 8.67838V9.7544L9.32048 9.21641Z" fill="#289ADE"/>
</g>
</g>
<defs>
<clipPath id="clip0_483_879">
<rect width="10" height="10" fill="white"/>
</clipPath>
</defs>
</svg>
