<svg width="10" height="10" viewBox="0 0 10 10" fill="none" xmlns="http://www.w3.org/2000/svg">
<g id="Frame" clip-path="url(#clip0_500_828)">
<g id="Group">
<g id="Group_2">
<path id="Vector" d="M5.00397 3.00031L8.00427 1.50015L5.00397 0V5.00051" stroke="#289ADE" stroke-width="0.7" stroke-linecap="round" stroke-linejoin="round"/>
<path id="Vector_2" d="M3.00378 4.99551L0.2535 6.56567C0.176543 6.60928 0.112533 6.67253 0.0679983 6.74896C0.023464 6.82538 0 6.91226 0 7.00071C0 7.08917 0.023464 7.17604 0.0679983 7.25247C0.112533 7.3289 0.176543 7.39214 0.2535 7.43576L4.50394 9.86601C4.65597 9.95378 4.82843 9.99999 5.00399 9.99999C5.17954 9.99999 5.352 9.95378 5.50404 9.86601L9.75447 7.43576C9.83143 7.39214 9.89544 7.3289 9.93998 7.25247C9.98451 7.17604 10.008 7.08917 10.008 7.00071C10.008 6.91226 9.98451 6.82538 9.93998 6.74896C9.89544 6.67253 9.83143 6.60928 9.75447 6.56567L7.00419 5.00051M2.2487 5.42555L7.75927 8.57587M7.75927 5.42555L2.25371 8.57587" stroke="#289ADE" stroke-width="0.7" stroke-linecap="round" stroke-linejoin="round"/>
</g>
</g>
</g>
<defs>
<clipPath id="clip0_500_828">
<rect width="10" height="10" fill="white"/>
</clipPath>
</defs>
</svg>
