<svg width="10" height="10" viewBox="0 0 10 10" fill="none" xmlns="http://www.w3.org/2000/svg">
<g id="Frame" clip-path="url(#clip0_501_974)">
<g id="Group">
<path id="Vector" d="M5.95067 0.212275C5.81471 0.0763554 5.63033 0 5.43808 0C5.24583 0 5.06146 0.0763554 4.9255 0.212275L0.10631 5.03074C0.0726058 5.06444 0.0458699 5.10445 0.0276292 5.14849C0.0093884 5.19253 0 5.23973 0 5.28739C0 5.33506 0.0093884 5.38226 0.0276292 5.42629C0.0458699 5.47033 0.0726058 5.51034 0.10631 5.54405C0.17438 5.61212 0.266702 5.65036 0.362966 5.65036C0.410632 5.65036 0.45783 5.64097 0.501867 5.62273C0.545904 5.60449 0.585918 5.57775 0.619622 5.54405L5.43808 0.724862L10.2565 5.54405C10.3246 5.61212 10.4169 5.65036 10.5132 5.65036C10.6095 5.65036 10.7018 5.61212 10.7699 5.54405C10.8379 5.47598 10.8762 5.38366 10.8762 5.28739C10.8762 5.19113 10.8379 5.0988 10.7699 5.03074L9.06317 3.32477V0.937292C9.06317 0.841149 9.02497 0.748943 8.95699 0.68096C8.88901 0.612976 8.7968 0.574783 8.70066 0.574783H7.97564C7.8795 0.574783 7.78729 0.612976 7.71931 0.68096C7.65133 0.748943 7.61313 0.841149 7.61313 0.937292V1.87474L5.95067 0.212275Z" fill="#289ADE"/>
<path id="Exclude" fill-rule="evenodd" clip-rule="evenodd" d="M9.78827 5.86233L5.43817 1.51223L1.08807 5.86233V8.91247C1.08807 9.2009 1.20265 9.47752 1.4066 9.68147C1.61055 9.88542 1.88717 10 2.1756 10H8.70075C8.98918 10 9.26579 9.88542 9.46974 9.68147C9.6737 9.47752 9.78827 9.2009 9.78827 8.91247V5.86233ZM7.64299 6.57694C7.64299 7.00677 7.29235 7.35374 6.8547 7.35374C6.41706 7.35374 6.06378 7.00677 6.06378 6.57694C6.06378 6.14711 6.41706 5.80013 6.8547 5.80013C7.29235 5.80013 7.64299 6.14711 7.64299 6.57694ZM5.53385 6.57694C5.53385 7.00677 5.18321 7.35374 4.74556 7.35374C4.30792 7.35374 3.95464 7.00677 3.95464 6.57694C3.95464 6.14711 4.30792 5.80013 4.74556 5.80013C5.18321 5.80013 5.53385 6.14711 5.53385 6.57694ZM2.90007 8.77788C2.90007 8.17456 4.13128 7.87161 4.74556 7.87161C5.35985 7.87161 6.59106 8.17456 6.59106 8.77788V9.16628C6.59106 9.3087 6.47242 9.42522 6.32742 9.42522H3.16371C3.01871 9.42522 2.90007 9.3087 2.90007 9.16628V8.77788ZM6.59897 7.88456C6.69124 7.87679 6.77825 7.87161 6.8547 7.87161C7.46899 7.87161 8.7002 8.17456 8.7002 8.77788V9.16628C8.7002 9.3087 8.58156 9.42522 8.43656 9.42522H7.07089C7.09989 9.34495 7.11835 9.25691 7.11835 9.16628V8.77788C7.11835 8.39725 6.91007 8.10983 6.60952 7.89491C6.60872 7.89413 6.60792 7.89311 6.60705 7.89199C6.60504 7.88943 6.60265 7.88636 6.59897 7.88456Z" fill="#289ADE"/>
</g>
</g>
<defs>
<clipPath id="clip0_501_974">
<rect width="10" height="10" fill="white"/>
</clipPath>
</defs>
</svg>
