<svg width="10" height="10" viewBox="0 0 10 10" fill="none" xmlns="http://www.w3.org/2000/svg">
<g id="Frame" clip-path="url(#clip0_510_737)">
<g id="Group">
<g id="Group 560">
<g id="Group_2">
<path id="Vector" d="M5.50007 5.12502C5.64926 5.12502 5.79234 5.06576 5.89783 4.96027C6.00332 4.85477 6.06258 4.7117 6.06258 4.56251C6.06258 4.41332 6.00332 4.27025 5.89783 4.16476C5.79234 4.05926 5.64926 4 5.50007 4C5.35088 4 5.20781 4.05926 5.10232 4.16476C4.99683 4.27025 4.93756 4.41332 4.93756 4.56251C4.93756 4.7117 4.99683 4.85477 5.10232 4.96027C5.20781 5.06576 5.35088 5.12502 5.50007 5.12502ZM7.1251 6.62505C7.02564 6.62505 6.93026 6.66456 6.85993 6.73489C6.7896 6.80521 6.7501 6.9006 6.7501 7.00006V7.04293C6.7501 7.07608 6.76326 7.10788 6.78671 7.13132C6.81015 7.15476 6.84194 7.16793 6.8751 7.16793C6.90825 7.16793 6.94004 7.15476 6.96349 7.13132C6.98693 7.10788 7.0001 7.07608 7.0001 7.04293V7.00006C7.0001 6.9669 7.01327 6.93511 7.03671 6.91167C7.06015 6.88822 7.09195 6.87505 7.1251 6.87505C7.15825 6.87505 7.19005 6.88822 7.21349 6.91167C7.23693 6.93511 7.2501 6.9669 7.2501 7.00006V8.86834C7.2501 8.90149 7.26327 8.93329 7.28672 8.95673C7.31016 8.98017 7.34195 8.99334 7.37511 8.99334C7.40826 8.99334 7.44005 8.98017 7.4635 8.95673C7.48694 8.93329 7.50011 8.90149 7.50011 8.86834V7.00006C7.50011 6.9006 7.4606 6.80521 7.39027 6.73489C7.31994 6.66456 7.22456 6.62505 7.1251 6.62505ZM6.46371 6.02241L6.25009 5.92916L6.44946 6.01379L6.46371 6.02241ZM6.61697 6.15517C6.5735 6.10281 6.52173 6.05797 6.46371 6.02241L7.2501 6.36604V6.35404V6.35429C7.26198 6.4918 7.15573 6.61267 7.01273 6.6243C6.87097 6.63555 6.74622 6.53505 6.73259 6.39917V6.39892C6.72885 6.37687 6.72342 6.35514 6.71634 6.33392C6.69444 6.26875 6.66076 6.20816 6.61697 6.15517Z" fill="#289ADE"/>
<path id="Vector_2" fill-rule="evenodd" clip-rule="evenodd" d="M7.25012 6.35392L6.44948 6.01391C6.38681 5.97744 6.31983 5.94893 6.2501 5.92904V8.75009C6.25007 8.81422 6.2254 8.87589 6.18119 8.92235C6.13698 8.96881 6.0766 8.9965 6.01255 8.99969C5.94849 9.00289 5.88566 8.98134 5.83705 8.93952C5.78843 8.89769 5.75774 8.83878 5.75134 8.77497L5.62634 7.52494C5.62551 7.51668 5.62509 7.50837 5.62509 7.50007H5.37508C5.37508 7.50832 5.37471 7.51669 5.37383 7.52494L5.24883 8.77497C5.24242 8.83878 5.21174 8.89769 5.16312 8.93952C5.11451 8.98134 5.05168 9.00289 4.98762 8.99969C4.92357 8.9965 4.86319 8.96881 4.81898 8.92235C4.77476 8.87589 4.75009 8.81422 4.75007 8.75009V6.98993C4.54019 6.96206 4.36381 6.87768 4.23306 6.7493C4.15814 6.67588 4.09887 6.58804 4.05883 6.49108C4.01878 6.39412 3.99879 6.29006 4.00006 6.18517C4.00109 6.08058 4.02284 5.97723 4.06403 5.88109C4.10522 5.78495 4.16505 5.69792 4.24006 5.62503C4.40131 5.46765 4.63119 5.37503 4.90695 5.37503H5.82197C6.4436 5.37503 6.81498 5.59028 7.02449 5.84491C7.10688 5.9448 7.17018 6.05899 7.21124 6.18179C7.22949 6.23679 7.24374 6.29342 7.24987 6.35092V6.3528L7.25012 6.35354V6.35392ZM4.60394 6.39917C4.63607 6.43067 4.68282 6.46117 4.75007 6.48017V5.89629C4.68757 5.91529 4.64207 5.94491 4.60969 5.97641C4.58136 6.00431 4.55882 6.03754 4.54337 6.07418C4.52793 6.11082 4.51988 6.15015 4.51969 6.18992C4.51894 6.26992 4.54869 6.34492 4.60394 6.39917Z" fill="#289ADE"/>
</g>
<path id="Vector_3" d="M5.95067 0.212275C5.81471 0.0763554 5.63033 0 5.43808 0C5.24583 0 5.06146 0.0763554 4.9255 0.212275L0.10631 5.03074C0.0726058 5.06444 0.0458699 5.10445 0.0276292 5.14849C0.0093884 5.19253 0 5.23973 0 5.28739C0 5.33506 0.0093884 5.38226 0.0276292 5.42629C0.0458699 5.47033 0.0726058 5.51034 0.10631 5.54405C0.17438 5.61212 0.266702 5.65036 0.362966 5.65036C0.410632 5.65036 0.45783 5.64097 0.501867 5.62273C0.545904 5.60449 0.585918 5.57775 0.619622 5.54405L1.08798 5.07496V8.91247C1.08798 9.2009 1.20256 9.47752 1.40651 9.68147C1.61046 9.88542 1.88708 10 2.17551 10H8.70066C8.98909 10 9.2657 9.88542 9.46965 9.68147C9.6736 9.47752 9.78818 9.2009 9.78818 8.91247V5.07496L10.2565 5.54405C10.3246 5.61212 10.4169 5.65036 10.5132 5.65036C10.6095 5.65036 10.7018 5.61212 10.7699 5.54405C10.8379 5.47598 10.8762 5.38366 10.8762 5.28739C10.8762 5.19113 10.8379 5.0988 10.7699 5.03074L9.06317 3.32477V0.937292C9.06317 0.841149 9.02497 0.748943 8.95699 0.68096C8.88901 0.612976 8.7968 0.574783 8.70066 0.574783H7.97564C7.8795 0.574783 7.78729 0.612976 7.71931 0.68096C7.65133 0.748943 7.61313 0.841149 7.61313 0.937292V1.87474L5.95067 0.212275ZM9.06317 4.34995V8.91247C9.06317 9.00862 9.02497 9.10082 8.95699 9.16881C8.88901 9.23679 8.7968 9.27498 8.70066 9.27498H2.17551C2.07936 9.27498 1.98716 9.23679 1.91918 9.16881C1.85119 9.10082 1.813 9.00862 1.813 8.91247V4.34995L5.43808 0.724862L9.06317 4.34995Z" fill="#289ADE"/>
</g>
</g>
</g>
<defs>
<clipPath id="clip0_510_737">
<rect width="10" height="10" fill="white"/>
</clipPath>
</defs>
</svg>
