<svg width="10" height="10" viewBox="0 0 10 10" fill="none" xmlns="http://www.w3.org/2000/svg">
<g id="Frame" clip-path="url(#clip0_483_826)">
<g id="Group">
<path id="Vector" d="M1 0H9C9.55 0 10 0.45 10 1V4H4V9H6.275C6.365 9.15 6.455 9.29 6.545 9.42C6.69 9.635 6.83 9.83 6.96 10H1C0.45 10 0 9.55 0 9V1C0 0.45 0.45 0 1 0ZM3 1H1V6H3V1ZM1 7V9H3V7H1ZM4 3H9V1H4V3ZM8.25 10C8.25 10 7.96 9.675 7.615 9.205C7.57 9.14 7.52 9.07 7.47 9C7 8.33 6.5 7.445 6.5 6.75C6.5 5.8 7.3 5 8.25 5C8.515 5 8.77 5.065 9 5.175C9.585 5.46 10 6.065 10 6.75C10 7.52 9.385 8.52 8.885 9.205C8.54 9.675 8.25 10 8.25 10ZM7.65 6.8C7.65 7.1 7.9 7.4 8.25 7.4C8.6 7.4 8.9 7.1 8.85 6.8C8.85 6.5 8.55 6.2 8.25 6.2C7.95 6.2 7.65 6.45 7.65 6.8Z" fill="#E5E5EA"/>
</g>
</g>
<defs>
<clipPath id="clip0_483_826">
<rect width="10" height="10" fill="white"/>
</clipPath>
</defs>
</svg>
