<svg width="10" height="10" viewBox="0 0 10 10" fill="none" xmlns="http://www.w3.org/2000/svg">
<g id="Frame" clip-path="url(#clip0_500_785)">
<g id="Group">
<path id="Vector" d="M6.92148 2.53763H8.42189C8.51264 2.53772 8.60012 2.57114 8.66739 2.63142C8.73466 2.6917 8.77693 2.77454 8.78601 2.8639L9.00946 5.07526H8.27244L8.08928 3.26267H6.92148V4.35022C6.92148 4.44637 6.88288 4.53858 6.81419 4.60656C6.74549 4.67455 6.65232 4.71274 6.55516 4.71274C6.45801 4.71274 6.36484 4.67455 6.29614 4.60656C6.22744 4.53858 6.18885 4.44637 6.18885 4.35022V3.26267H3.25835V4.35022C3.25835 4.44637 3.21976 4.53858 3.15106 4.60656C3.08237 4.67455 2.98919 4.71274 2.89204 4.71274C2.79489 4.71274 2.70172 4.67455 2.63302 4.60656C2.56432 4.53858 2.52573 4.44637 2.52573 4.35022V3.26267H1.35719L0.771092 9.06297H4.7236V9.788H0.365951C0.314787 9.78795 0.264201 9.7773 0.217453 9.75672C0.170704 9.73615 0.128829 9.70611 0.0945266 9.66854C0.0602237 9.63097 0.0342534 9.58671 0.0182889 9.5386C0.00232446 9.4905 -0.00328019 9.43961 0.00183621 9.38923L0.661198 2.8639C0.670273 2.77454 0.71254 2.6917 0.779811 2.63142C0.847081 2.57114 0.934565 2.53772 1.02531 2.53763H2.52573V2.28459C2.52573 1.02738 3.50451 0 4.7236 0C5.94269 0 6.92148 1.02738 6.92148 2.28459V2.53836V2.53763ZM6.18885 2.53763V2.28459C6.18885 1.4189 5.52802 0.725037 4.7236 0.725037C3.91918 0.725037 3.25835 1.4189 3.25835 2.28459V2.53836H6.18885V2.53763ZM8.49442 7.93191C8.52784 7.89593 8.56826 7.867 8.61326 7.84688C8.65826 7.82675 8.70691 7.81583 8.75628 7.81479C8.80565 7.81374 8.85472 7.82258 8.90055 7.84079C8.94638 7.85899 8.98802 7.88617 9.02296 7.9207C9.0579 7.95523 9.08543 7.9964 9.10389 8.04173C9.12234 8.08706 9.13135 8.13561 9.13036 8.18447C9.12937 8.23334 9.11841 8.28149 9.09814 8.32606C9.07787 8.37062 9.0487 8.41066 9.01239 8.44378L7.54714 9.89386C7.47844 9.96182 7.38529 10 7.28815 10C7.19102 10 7.09787 9.96182 7.02917 9.89386L5.56392 8.44378C5.52894 8.41034 5.50103 8.37034 5.48183 8.32611C5.46263 8.28188 5.45253 8.23431 5.45211 8.18618C5.45168 8.13804 5.46095 8.09031 5.47937 8.04576C5.49779 8.0012 5.52499 7.96073 5.55938 7.92669C5.59378 7.89265 5.63468 7.86573 5.67969 7.84751C5.72471 7.82928 5.77295 7.82011 5.82159 7.82052C5.87023 7.82094 5.91829 7.83094 5.96298 7.84994C6.00768 7.86894 6.0481 7.89656 6.08189 7.93118L6.92148 8.7628V6.16282C6.92148 6.06667 6.96007 5.97446 7.02877 5.90648C7.09746 5.83849 7.19064 5.8003 7.28779 5.8003C7.38494 5.8003 7.47811 5.83849 7.54681 5.90648C7.61551 5.97446 7.6541 6.06667 7.6541 6.16282V8.7628L8.49442 7.93118V7.93191Z" fill="#E5E5EA"/>
</g>
</g>
<defs>
<clipPath id="clip0_500_785">
<rect width="10" height="10" fill="white"/>
</clipPath>
</defs>
</svg>
