<svg width="10" height="10" viewBox="0 0 10 10" fill="none" xmlns="http://www.w3.org/2000/svg">
<g id="Frame" clip-path="url(#clip0_501_982)">
<g id="Group">
<path id="Vector" d="M9.2575 4.76731C8.77308 4.50154 7.07654 3.95173 5.665 3.54038L6.68962 2.48212L6.80077 2.59731L7.04558 2.34462L6.93442 2.22923L7.64289 1.49712L7.50731 1.35673L8.21577 0.625L7.61115 0L6.9025 0.731923L6.76615 0.591538L6.05712 1.32346L5.79173 1.04962L4.155 2.74231L4.36135 2.95635L5.75 1.52058L5.81077 1.57827L4.31173 3.12654C2.95885 2.50615 2.44615 3.19096 1.74519 4.13712C1.36154 4.65481 0.883846 5.29942 0.140577 5.92712C-0.1025 6.13192 -0.351538 6.48462 -0.320961 6.86038C-0.305961 7.04692 -0.210577 7.31115 0.132115 7.54308L-0.5975 8.89635L-1 9.31288L-0.800769 9.51885L-0.396346 9.10135L0.540769 8.56346C0.715577 8.79673 0.985192 8.96231 1.26038 8.98942C1.92212 9.05558 2.48288 9.30192 3.02538 9.54019C3.56327 9.77673 4.07115 10 4.60154 10C5.30096 10 5.84712 9.90519 6.425 9.80462C7.17519 9.67442 8.02558 9.52692 9.46173 9.52692C9.99596 9.52692 10.3725 9.09039 10.4948 8.33C10.7108 6.99231 10.0977 5.22769 9.2575 4.76731ZM3.61673 6.80365C3.43231 6.71865 3.25692 6.63808 3.11231 6.585C3.10173 6.58115 3.09 6.57789 3.07942 6.57404C3.1625 6.44385 3.33135 6.22327 3.66442 5.91173C3.63923 6.28058 3.62404 6.62154 3.61673 6.80365ZM6.76635 0.936731L7.30904 1.49712L6.7675 2.05635L6.22481 1.49596L6.76635 0.936731ZM5.97962 1.74923L6.52231 2.30962L2.50288 6.46115C1.975 6.4275 1.34115 6.57135 0.795577 7.10404L5.97962 1.74923ZM0.391539 6.22442C1.17712 5.57673 1.66192 4.90308 2.05769 4.36923C2.73923 3.44942 3.09538 2.91385 4.10462 3.34077L0.541154 7.02173C0.364808 6.91769 -0.0530769 6.59096 0.391539 6.22442ZM-0.2375 8.73173L0.331538 7.6725L0.380577 7.72308C0.319167 7.92597 0.330111 8.14389 0.411538 8.33962L-0.2375 8.73173ZM10.2204 8.21577C10.1683 8.54039 9.77635 8.98231 9.33346 8.98231C7.86365 8.98231 7.12385 9.19885 6.35654 9.32308C4.87115 9.56327 3.76865 9.25769 3.28865 8.95173C2.08558 8.18519 1.42962 8.58058 0.876731 8.15462C0.698846 8.0175 0.714808 7.6825 0.888846 7.47308C1.65808 6.54962 2.65962 6.70442 2.98462 6.85865C3.92019 7.30288 4.77096 7.36827 4.99846 7.31865C5.22635 7.27212 5.42788 7.14827 5.58519 6.99308C5.40635 7.12442 5.1975 7.21096 4.98442 7.22231C4.77192 7.23712 4.16 7.04615 4.05635 7.00173C4.01885 6.81769 3.95846 6.48961 3.95288 6.24904C4.33635 6.64 4.75788 6.73923 4.75788 6.73923L3.93769 5.65769C3.93769 5.65769 5.13769 4.33635 5.93615 3.93077C7.28039 4.32539 8.69308 4.76808 9.09962 4.99115C9.79154 5.37019 10.4069 7.05962 10.2204 8.21577Z" fill="#E5E5EA"/>
</g>
</g>
<defs>
<clipPath id="clip0_501_982">
<rect width="10" height="10" fill="white"/>
</clipPath>
</defs>
</svg>
