<svg width="10" height="10" viewBox="0 0 10 10" fill="none" xmlns="http://www.w3.org/2000/svg">
<g id="Frame" clip-path="url(#clip0_500_853)">
<g id="Group">
<path id="Vector" d="M2.21709 0.168383C2.34592 0.0596474 2.50907 0 2.67765 0C2.84623 0 3.00938 0.0596474 3.13821 0.168383L4.97543 1.72071L4.99828 1.7407L5.02113 1.72071L6.85836 0.168383C6.98718 0.0596474 7.15033 0 7.31891 0C7.48749 0 7.65064 0.0596474 7.77947 0.168383L9.61669 1.72071C9.73572 1.82126 9.83138 1.94657 9.89699 2.0879C9.96259 2.22924 9.99658 2.38318 9.99656 2.539V8.92894C9.99656 9.213 9.88372 9.48543 9.68285 9.68629C9.48199 9.88716 9.20956 10 8.9255 10H1.07106C0.786997 10 0.514569 9.88716 0.313706 9.68629C0.112844 9.48543 0 9.213 0 8.92894V2.53828C0 2.2241 0.139238 1.92421 0.379869 1.72071L2.21709 0.168383ZM5.3553 7.14027H6.78338C6.87807 7.14027 6.96888 7.17788 7.03583 7.24484C7.10279 7.31179 7.1404 7.4026 7.1404 7.49729V9.28596H8.9255C9.02019 9.28596 9.111 9.24835 9.17795 9.18139C9.24491 9.11444 9.28252 9.02363 9.28252 8.92894V2.53828C9.28245 2.48648 9.27111 2.43532 9.24929 2.38834C9.22746 2.34136 9.19568 2.2997 9.15614 2.26623L7.31891 0.71391L5.48169 2.26623C5.44205 2.29977 5.41021 2.34155 5.38838 2.38866C5.36656 2.43577 5.35527 2.48708 5.3553 2.539V7.14027ZM4.64126 7.14027V2.539C4.64129 2.48708 4.63 2.43577 4.60818 2.38866C4.58635 2.34155 4.55451 2.29977 4.51488 2.26623L2.67765 0.71391L0.840425 2.26623C0.800792 2.29977 0.768952 2.34155 0.747124 2.38866C0.725296 2.43577 0.714006 2.48708 0.71404 2.539V8.92894C0.71404 9.02363 0.751655 9.11444 0.818609 9.18139C0.885563 9.24835 0.976373 9.28596 1.07106 9.28596H2.85616V7.49729C2.85616 7.4026 2.89377 7.31179 2.96073 7.24484C3.02768 7.17788 3.11849 7.14027 3.21318 7.14027H4.64126ZM3.5702 9.28596H4.64126V7.85431H3.5702V9.28596ZM5.3553 7.85431V9.28596H6.42636V7.85431H5.3553ZM2.67765 3.92709C2.81968 3.92709 2.9559 3.87067 3.05633 3.77024C3.15676 3.66981 3.21318 3.53359 3.21318 3.39156C3.21318 3.24953 3.15676 3.11331 3.05633 3.01288C2.9559 2.91245 2.81968 2.85603 2.67765 2.85603C2.53562 2.85603 2.3994 2.91245 2.29897 3.01288C2.19854 3.11331 2.14212 3.24953 2.14212 3.39156C2.14212 3.53359 2.19854 3.66981 2.29897 3.77024C2.3994 3.87067 2.53562 3.92709 2.67765 3.92709ZM3.21318 5.53368C3.21318 5.67571 3.15676 5.81193 3.05633 5.91236C2.9559 6.01279 2.81968 6.06921 2.67765 6.06921C2.53562 6.06921 2.3994 6.01279 2.29897 5.91236C2.19854 5.81193 2.14212 5.67571 2.14212 5.53368C2.14212 5.39165 2.19854 5.25543 2.29897 5.155C2.3994 5.05457 2.53562 4.99815 2.67765 4.99815C2.81968 4.99815 2.9559 5.05457 3.05633 5.155C3.15676 5.25543 3.21318 5.39165 3.21318 5.53368ZM7.31891 3.92709C7.46094 3.92709 7.59716 3.87067 7.69759 3.77024C7.79802 3.66981 7.85444 3.53359 7.85444 3.39156C7.85444 3.24953 7.79802 3.11331 7.69759 3.01288C7.59716 2.91245 7.46094 2.85603 7.31891 2.85603C7.17688 2.85603 7.04067 2.91245 6.94023 3.01288C6.8398 3.11331 6.78338 3.24953 6.78338 3.39156C6.78338 3.53359 6.8398 3.66981 6.94023 3.77024C7.04067 3.87067 7.17688 3.92709 7.31891 3.92709ZM7.85444 5.53368C7.85444 5.67571 7.79802 5.81193 7.69759 5.91236C7.59716 6.01279 7.46094 6.06921 7.31891 6.06921C7.17688 6.06921 7.04067 6.01279 6.94023 5.91236C6.8398 5.81193 6.78338 5.67571 6.78338 5.53368C6.78338 5.39165 6.8398 5.25543 6.94023 5.155C7.04067 5.05457 7.17688 4.99815 7.31891 4.99815C7.46094 4.99815 7.59716 5.05457 7.69759 5.155C7.79802 5.25543 7.85444 5.39165 7.85444 5.53368Z" fill="#289ADE"/>
</g>
</g>
<defs>
<clipPath id="clip0_500_853">
<rect width="10" height="10" fill="white"/>
</clipPath>
</defs>
</svg>
