<svg width="10" height="10" viewBox="0 0 10 10" fill="none" xmlns="http://www.w3.org/2000/svg">
<g id="Frame" clip-path="url(#clip0_482_674)">
<g id="Group">
<path id="Vector" d="M3.99279 0.000442505H1.7218V1.38529L3.99279 1.00679V0.000442505ZM8.99242 9.41376V2.85738H5.29297V9.41376H4.70703V1.48179L1.00758 2.09835V9.41376H0V9.9997H10V9.41376H8.99242ZM7.54574 3.6999H8.16811V4.28583H7.54574V3.6999ZM7.54574 5.12837H8.16811V5.71431H7.54574V5.12837ZM7.54574 6.55683H8.16811V7.14277H7.54574V6.55683ZM7.54574 7.98531H8.16811V8.57124H7.54574V7.98531ZM6.11728 3.6999H6.73965V4.28583H6.11728V3.6999ZM6.11728 5.12837H6.73965V5.71431H6.11728V5.12837ZM6.11728 6.55683H6.73965V7.14277H6.11728V6.55683ZM6.11728 7.98531H6.73965V8.57124H6.11728V7.98531ZM3.26035 2.27144H3.88271V2.85738H3.26035V2.27144ZM3.26035 3.6999H3.88271V4.28583H3.26035V3.6999ZM3.26035 5.12837H3.88271V5.71431H3.26035V5.12837ZM3.26035 6.55683H3.88271V7.14277H3.26035V6.55683ZM1.83189 3.6999H2.45426V4.28583H1.83189V3.6999ZM1.83189 5.12837H2.45426V5.71431H1.83189V5.12837ZM1.83189 6.55683H2.45426V7.14277H1.83189V6.55683ZM1.8501 7.98531H3.86451V9.41376H3.27857V8.57124H2.43604V9.41376H1.8501V7.98531Z" fill="#289ADE"/>
</g>
</g>
<defs>
<clipPath id="clip0_482_674">
<rect width="10" height="10" fill="white"/>
</clipPath>
</defs>
</svg>
