<svg width="10" height="10" viewBox="0 0 10 10" fill="none" xmlns="http://www.w3.org/2000/svg">
<g id="Frame" clip-path="url(#clip0_500_815)">
<g id="Group">
<path id="Vector" d="M0.33334 3.66654L0.140003 3.3952L0 3.4952V3.66654H0.33334ZM5.0001 0.333135L5.19344 0.0617958C5.13698 0.0216002 5.06941 0 5.0001 0C4.9308 0 4.86322 0.0216002 4.80677 0.0617958L5.0001 0.333135ZM9.66686 3.66654H10.0002V3.4952L9.8602 3.3952L9.66686 3.66654ZM1.6667 5.66658V5.33324H1.33336V5.66658H1.6667ZM4.33342 5.66658H4.66676V5.33324H4.33342V5.66658ZM0.66668 10V3.66654H0L0 10H0.66668ZM0.526677 3.93788L5.19344 0.604474L4.80677 0.0617958L0.140003 3.3952L0.526677 3.93788ZM4.80677 0.604474L9.47353 3.93788L9.8602 3.3952L5.19344 0.0617958L4.80677 0.604474ZM9.33352 3.66654V10H10.0002V3.66654H9.33352ZM2.00004 10V5.66658H1.33336V10H2.00004ZM1.6667 5.99992H4.33342V5.33324H1.6667V5.99992ZM4.00008 5.66658V10H4.66676V5.66658H4.00008ZM3.3334 7.99996H4.33342V7.33328H3.3334V7.99996ZM7.33348 5.33324V7.99996H8.00016V5.33324H7.33348ZM8.66684 1.33316V2.99986H9.33352V1.33316H8.66684Z" fill="#289ADE"/>
</g>
</g>
<defs>
<clipPath id="clip0_500_815">
<rect width="10" height="10" fill="white"/>
</clipPath>
</defs>
</svg>
