<svg width="16" height="17" viewBox="0 0 16 17" fill="none" xmlns="http://www.w3.org/2000/svg">
<g id="Icon">
<path id="Vector" d="M6 4.66676V10.1668M10 6.16676V11.6668M10.3353 13.9988L13.5853 12.3741C13.8393 12.2474 14 11.9874 14 11.7034V3.38009C14 2.82276 13.4133 2.46009 12.9147 2.70942L10.3353 3.99876C10.124 4.10476 9.87533 4.10476 9.66467 3.99876L6.33533 2.33476C6.23121 2.28271 6.1164 2.25562 6 2.25562C5.8836 2.25562 5.76879 2.28271 5.66467 2.33476L2.41467 3.95942C2.16 4.08676 2 4.34676 2 4.63009V12.9534C2 13.5108 2.58667 13.8734 3.08533 13.6241L5.66467 12.3348C5.876 12.2288 6.12467 12.2288 6.33533 12.3348L9.66467 13.9994C9.876 14.1048 10.1247 14.1048 10.3353 13.9994V13.9988Z" stroke="#8E8E93" stroke-linecap="round" stroke-linejoin="round"/>
</g>
</svg>
