<svg width="15" height="15" viewBox="0 0 15 15" fill="none" xmlns="http://www.w3.org/2000/svg">
<path id="Vector" d="M14.4764 2.35627C14.3375 2.35627 14.2043 2.3011 14.1061 2.2029C14.0079 2.10471 13.9528 1.97152 13.9528 1.83265V1.04723H13.1673C13.0285 1.04723 12.8953 0.992063 12.7971 0.893867C12.6989 0.79567 12.6437 0.662486 12.6437 0.523615C12.6437 0.384744 12.6989 0.25156 12.7971 0.153363C12.8953 0.055166 13.0285 0 13.1673 0H14.4764C14.6153 0 14.7484 0.055166 14.8466 0.153363C14.9448 0.25156 15 0.384744 15 0.523615V1.83265C15 1.97152 14.9448 2.10471 14.8466 2.2029C14.7484 2.3011 14.6153 2.35627 14.4764 2.35627ZM10.9004 1.04723H8.63336C8.49449 1.04723 8.36131 0.992063 8.26311 0.893867C8.16492 0.79567 8.10975 0.662486 8.10975 0.523615C8.10975 0.384744 8.16492 0.25156 8.26311 0.153363C8.36131 0.055166 8.49449 0 8.63336 0H10.9004C11.0392 0 11.1724 0.055166 11.2706 0.153363C11.3688 0.25156 11.424 0.384744 11.424 0.523615C11.424 0.662486 11.3688 0.79567 11.2706 0.893867C11.1724 0.992063 11.0392 1.04723 10.9004 1.04723ZM6.36637 1.04723H4.09938C3.96051 1.04723 3.82733 0.992063 3.72913 0.893867C3.63093 0.79567 3.57577 0.662486 3.57577 0.523615C3.57577 0.384744 3.63093 0.25156 3.72913 0.153363C3.82733 0.055166 3.96051 0 4.09938 0H6.36637C6.50524 0 6.63843 0.055166 6.73662 0.153363C6.83482 0.25156 6.88999 0.384744 6.88999 0.523615C6.88999 0.662486 6.83482 0.79567 6.73662 0.893867C6.63843 0.992063 6.50524 1.04723 6.36637 1.04723ZM0.523615 2.35627C0.384744 2.35627 0.25156 2.3011 0.153363 2.2029C0.055166 2.10471 0 1.97152 0 1.83265V0.523615C0 0.384744 0.055166 0.25156 0.153363 0.153363C0.25156 0.055166 0.384744 0 0.523615 0H1.83265C1.97152 0 2.10471 0.055166 2.2029 0.153363C2.3011 0.25156 2.35627 0.384744 2.35627 0.523615C2.35627 0.662486 2.3011 0.79567 2.2029 0.893867C2.10471 0.992063 1.97152 1.04723 1.83265 1.04723H1.04723V1.83265C1.04723 1.97152 0.992063 2.10471 0.893867 2.2029C0.79567 2.3011 0.662486 2.35627 0.523615 2.35627ZM0.523615 11.424C0.384744 11.424 0.25156 11.3688 0.153363 11.2706C0.055166 11.1724 0 11.0392 0 10.9004V8.63336C0 8.49449 0.055166 8.36131 0.153363 8.26311C0.25156 8.16492 0.384744 8.10975 0.523615 8.10975C0.662486 8.10975 0.79567 8.16492 0.893867 8.26311C0.992063 8.36131 1.04723 8.49449 1.04723 8.63336V10.9004C1.04723 11.0392 0.992063 11.1724 0.893867 11.2706C0.79567 11.3688 0.662486 11.424 0.523615 11.424ZM0.523615 6.88999C0.384744 6.88999 0.25156 6.83482 0.153363 6.73662C0.055166 6.63843 0 6.50524 0 6.36637V4.09938C0 3.96051 0.055166 3.82733 0.153363 3.72913C0.25156 3.63093 0.384744 3.57577 0.523615 3.57577C0.662486 3.57577 0.79567 3.63093 0.893867 3.72913C0.992063 3.82733 1.04723 3.96051 1.04723 4.09938V6.36637C1.04723 6.50524 0.992063 6.63843 0.893867 6.73662C0.79567 6.83482 0.662486 6.88999 0.523615 6.88999ZM1.83265 15H0.523615C0.384744 15 0.25156 14.9448 0.153363 14.8466C0.055166 14.7484 0 14.6153 0 14.4764V13.1673C0 13.0285 0.055166 12.8953 0.153363 12.7971C0.25156 12.6989 0.384744 12.6437 0.523615 12.6437C0.662486 12.6437 0.79567 12.6989 0.893867 12.7971C0.992063 12.8953 1.04723 13.0285 1.04723 13.1673V13.9528H1.83265C1.97152 13.9528 2.10471 14.0079 2.2029 14.1061C2.3011 14.2043 2.35627 14.3375 2.35627 14.4764C2.35627 14.6153 2.3011 14.7484 2.2029 14.8466C2.10471 14.9448 1.97152 15 1.83265 15ZM10.9004 15H8.63336C8.49449 15 8.36131 14.9448 8.26311 14.8466C8.16492 14.7484 8.10975 14.6153 8.10975 14.4764C8.10975 14.3375 8.16492 14.2043 8.26311 14.1061C8.36131 14.0079 8.49449 13.9528 8.63336 13.9528H10.9004C11.0392 13.9528 11.1724 14.0079 11.2706 14.1061C11.3688 14.2043 11.424 14.3375 11.424 14.4764C11.424 14.6153 11.3688 14.7484 11.2706 14.8466C11.1724 14.9448 11.0392 15 10.9004 15ZM6.36637 15H4.09938C3.96051 15 3.82733 14.9448 3.72913 14.8466C3.63093 14.7484 3.57577 14.6153 3.57577 14.4764C3.57577 14.3375 3.63093 14.2043 3.72913 14.1061C3.82733 14.0079 3.96051 13.9528 4.09938 13.9528H6.36637C6.50524 13.9528 6.63843 14.0079 6.73662 14.1061C6.83482 14.2043 6.88999 14.3375 6.88999 14.4764C6.88999 14.6153 6.83482 14.7484 6.73662 14.8466C6.63843 14.9448 6.50524 15 6.36637 15ZM14.4764 15H13.1673C13.0285 15 12.8953 14.9448 12.7971 14.8466C12.6989 14.7484 12.6437 14.6153 12.6437 14.4764C12.6437 14.3375 12.6989 14.2043 12.7971 14.1061C12.8953 14.0079 13.0285 13.9528 13.1673 13.9528H13.9528V13.1673C13.9528 13.0285 14.0079 12.8953 14.1061 12.7971C14.2043 12.6989 14.3375 12.6437 14.4764 12.6437C14.6153 12.6437 14.7484 12.6989 14.8466 12.7971C14.9448 12.8953 15 13.0285 15 13.1673V14.4764C15 14.6153 14.9448 14.7484 14.8466 14.8466C14.7484 14.9448 14.6153 15 14.4764 15ZM14.4764 11.424C14.3375 11.424 14.2043 11.3688 14.1061 11.2706C14.0079 11.1724 13.9528 11.0392 13.9528 10.9004V8.63336C13.9528 8.49449 14.0079 8.36131 14.1061 8.26311C14.2043 8.16492 14.3375 8.10975 14.4764 8.10975C14.6153 8.10975 14.7484 8.16492 14.8466 8.26311C14.9448 8.36131 15 8.49449 15 8.63336V10.9004C15 11.0392 14.9448 11.1724 14.8466 11.2706C14.7484 11.3688 14.6153 11.424 14.4764 11.424ZM14.4764 6.88999C14.3375 6.88999 14.2043 6.83482 14.1061 6.73662C14.0079 6.63843 13.9528 6.50524 13.9528 6.36637V4.09938C13.9528 3.96051 14.0079 3.82733 14.1061 3.72913C14.2043 3.63093 14.3375 3.57577 14.4764 3.57577C14.6153 3.57577 14.7484 3.63093 14.8466 3.72913C14.9448 3.82733 15 3.96051 15 4.09938V6.36637C15 6.50524 14.9448 6.63843 14.8466 6.73662C14.7484 6.83482 14.6153 6.88999 14.4764 6.88999Z" fill="#8E8E93"/>
</svg>
