<svg width="16" height="17" viewBox="0 0 16 17" fill="none" xmlns="http://www.w3.org/2000/svg">
<g id="Icon" clip-path="url(#clip0_563_45)">
<g id="Group">
<g id="Group_2">
<path id="Vector" d="M16 7.79175C16 7.39753 15.8392 7.02622 15.5471 6.74625C15.2624 6.47334 14.8905 6.323 14.5 6.323H2.96875V3.72362C2.96875 3.25825 3.133 2.82269 3.43116 2.49728C3.71894 2.18337 4.09853 2.0105 4.5 2.0105C5.23531 2.0105 5.78959 2.4294 5.96909 3.073H5.75C5.49113 3.073 5.28125 3.28287 5.28125 3.54175C5.28125 3.80062 5.49113 4.0105 5.75 4.0105H7.25C7.50887 4.0105 7.71875 3.80062 7.71875 3.54175C7.71875 3.28287 7.50887 3.073 7.25 3.073H6.928C6.83856 2.56075 6.60231 2.10256 6.23981 1.75262C5.78581 1.31437 5.16794 1.073 4.5 1.073C3.83262 1.073 3.20762 1.35381 2.74003 1.86387C2.28297 2.36272 2.03125 3.02319 2.03125 3.72362V6.323H1.5C1.1095 6.323 0.737625 6.47334 0.452875 6.74625C0.160812 7.02622 0 7.39753 0 7.79175C0 8.18597 0.160812 8.55728 0.452875 8.83725C0.620188 8.99759 0.817688 9.11525 1.03125 9.18534V11.9498C1.03125 13.3048 1.85678 14.4705 3.03125 14.9705V15.7917C3.03125 16.0506 3.24113 16.2605 3.5 16.2605C3.75887 16.2605 3.96875 16.0506 3.96875 15.7917V15.2131C4.08175 15.2249 4.19641 15.2311 4.3125 15.2311H11.6875C11.8036 15.2311 11.9183 15.2249 12.0312 15.2131V15.7917C12.0312 16.0506 12.2411 16.2605 12.5 16.2605C12.7589 16.2605 12.9688 16.0506 12.9688 15.7917V14.9705C14.1432 14.4705 14.9688 13.3048 14.9688 11.9498V9.18534C15.1823 9.11525 15.3798 8.99762 15.5471 8.83725C15.8392 8.55728 16 8.18597 16 7.79175ZM14.0312 11.9498C14.0312 13.2422 12.9798 14.2936 11.6875 14.2936H4.3125C3.02016 14.2936 1.96875 13.2422 1.96875 11.9498V9.2605H14.0312V11.9498ZM14.5 8.323H1.5C1.20034 8.323 0.9375 8.07475 0.9375 7.79175C0.9375 7.50875 1.20034 7.2605 1.5 7.2605H14.5C14.7997 7.2605 15.0625 7.50875 15.0625 7.79175C15.0625 8.07475 14.7997 8.323 14.5 8.323Z" fill="#8E8E93"/>
</g>
</g>
</g>
<defs>
<clipPath id="clip0_563_45">
<rect width="16" height="16" fill="white" transform="translate(0 0.666748)"/>
</clipPath>
</defs>
</svg>
