<svg width="16" height="17" viewBox="0 0 16 17" fill="none" xmlns="http://www.w3.org/2000/svg">
<g id="Icon">
<g id="Group">
<g id="Group_2">
<g id="Group_3">
<path id="Vector" d="M14.1805 7.84496V3.39621C14.1805 2.49158 13.4445 1.75562 12.5399 1.75562H3.46003C2.55541 1.75562 1.8195 2.49158 1.8195 3.39621V7.84496C0.777125 8.09571 0 9.0353 0 10.1535V13.4717C0 13.735 0.213406 13.9484 0.476656 13.9484H1.81947V15.1012C1.81947 15.3645 2.03288 15.5779 2.29612 15.5779C2.55937 15.5779 2.77278 15.3645 2.77278 15.1012V13.9484H13.2272V15.1012C13.2272 15.3645 13.4406 15.5779 13.7038 15.5779C13.9671 15.5779 14.1805 15.3645 14.1805 15.1012V13.9484H15.5233C15.7865 13.9484 15.9999 13.735 15.9999 13.4717V10.1535C16 9.0353 15.2229 8.09571 14.1805 7.84496ZM2.77281 3.39621C2.77281 3.01727 3.08113 2.70896 3.46003 2.70896H12.5399C12.9189 2.70896 13.2272 3.01727 13.2272 3.39621V7.77877H11.652V7.02677C11.652 5.78083 10.6384 4.76721 9.39247 4.76721H6.60759C5.36166 4.76721 4.34803 5.78087 4.34803 7.02677V7.77874H2.77281V3.39621ZM10.6987 7.02677V7.77874H5.30128V7.02677C5.30128 6.30649 5.88725 5.72052 6.60753 5.72052H9.39244C10.1127 5.72049 10.6987 6.30652 10.6987 7.02677ZM0.953313 12.9951V10.1535C0.953313 9.36974 1.59097 8.73208 2.37475 8.73208H13.6252C14.409 8.73208 15.0466 9.36974 15.0466 10.1535V12.9951H0.953313Z" fill="#8E8E93"/>
</g>
</g>
</g>
</g>
</svg>
