<svg width="26" height="26" viewBox="0 0 26 26" fill="none" xmlns="http://www.w3.org/2000/svg">
<g id="Group">
<path id="Vector" fill-rule="evenodd" clip-rule="evenodd" d="M16.2506 20.5834C16.2507 21.13 16.0443 21.6565 15.6726 22.0573C15.3009 22.4581 14.7915 22.7036 14.2464 22.7446L14.0839 22.75H11.9172C11.3706 22.7502 10.8441 22.5438 10.4433 22.1721C10.0425 21.8004 9.79698 21.291 9.75599 20.7459L9.75057 20.5834H16.2506ZM13.0006 2.1667C14.9668 2.16667 16.8562 2.93034 18.2702 4.29662C19.6841 5.6629 20.5122 7.52496 20.5796 9.49004L20.5839 9.75004V13.8277L22.5577 17.7754C22.6439 17.9476 22.687 18.1382 22.6834 18.3307C22.6798 18.5233 22.6295 18.7121 22.537 18.881C22.4445 19.0499 22.3124 19.1938 22.152 19.3005C21.9917 19.4072 21.8079 19.4734 21.6163 19.4935L21.4917 19.5H4.5094C4.31675 19.5001 4.12695 19.4534 3.95627 19.3641C3.7856 19.2747 3.63914 19.1453 3.52944 18.9869C3.41974 18.8285 3.35007 18.6459 3.32641 18.4547C3.30274 18.2635 3.32579 18.0695 3.39357 17.8891L3.4434 17.7754L5.41724 13.8277V9.75004C5.41724 7.73881 6.21619 5.80996 7.63834 4.38781C9.06049 2.96566 10.9893 2.1667 13.0006 2.1667ZM13.0006 4.33337C11.6047 4.33345 10.2628 4.87237 9.25464 5.83775C8.24648 6.80313 7.6499 8.12043 7.58932 9.51495L7.5839 9.75004V13.8277C7.58391 14.0964 7.53395 14.3627 7.43657 14.6131L7.35532 14.7973L6.08782 17.3334H19.9144L18.6469 14.7962C18.5267 14.556 18.4521 14.2956 18.427 14.0281L18.4172 13.8277V9.75004C18.4172 8.31345 17.8466 6.9357 16.8307 5.91987C15.8149 4.90405 14.4372 4.33337 13.0006 4.33337Z" fill="#8E8E93"/>
</g>
</svg>
