<svg width="257" height="60" viewBox="0 0 257 60" fill="none" xmlns="http://www.w3.org/2000/svg">
<path d="M51.2886 58.8904V29.7147H65.543C69.2108 29.7147 71.9617 30.4093 73.7956 31.7986C75.6573 33.188 76.5881 35.0219 76.5881 37.3004C76.5881 38.8286 76.213 40.1624 75.4628 41.3016C74.7126 42.4131 73.6845 43.2744 72.3785 43.8858C71.0725 44.4971 69.5721 44.8027 67.8771 44.8027L68.669 43.0938C70.5029 43.0938 72.1284 43.3995 73.5455 44.0108C74.9626 44.5943 76.0602 45.4696 76.8382 46.6366C77.644 47.8036 78.0469 49.2346 78.0469 50.9296C78.0469 53.4304 77.0605 55.3893 75.0877 56.8065C73.1148 58.1958 70.2112 58.8904 66.3766 58.8904H51.2886ZM57.999 53.8055H65.8765C67.627 53.8055 68.9469 53.5277 69.836 52.9719C70.753 52.3884 71.2115 51.4715 71.2115 50.2211C71.2115 48.9985 70.753 48.0954 69.836 47.5119C68.9469 46.9006 67.627 46.5949 65.8765 46.5949H57.4988V41.6767H64.7094C66.3488 41.6767 67.5992 41.3989 68.4606 40.8431C69.3498 40.2596 69.7944 39.3843 69.7944 38.2173C69.7944 37.0781 69.3498 36.2306 68.4606 35.6749C67.5992 35.0913 66.3488 34.7996 64.7094 34.7996H57.999V53.8055Z" fill="#2F2F2F"/>
<path d="M96.4547 58.8904V54.5141L96.0379 53.5554V45.7197C96.0379 44.3303 95.6072 43.2467 94.7458 42.4686C93.9122 41.6906 92.6202 41.3016 90.8696 41.3016C89.6748 41.3016 88.4939 41.4961 87.3268 41.8851C86.1876 42.2464 85.2151 42.7465 84.4093 43.3856L82.0752 38.8425C83.2978 37.9811 84.7705 37.3143 86.4933 36.8419C88.216 36.3695 89.9666 36.1333 91.7449 36.1333C95.1626 36.1333 97.8162 36.9391 99.7057 38.5508C101.595 40.1624 102.54 42.677 102.54 46.0948V58.8904H96.4547ZM89.6192 59.2239C87.8687 59.2239 86.3682 58.9321 85.1178 58.3486C83.8674 57.7373 82.9088 56.9176 82.2419 55.8895C81.5751 54.8614 81.2416 53.7083 81.2416 52.4301C81.2416 51.0963 81.5612 49.9293 82.2002 48.929C82.8671 47.9287 83.9091 47.1507 85.3262 46.5949C86.7433 46.0114 88.5911 45.7197 90.8696 45.7197H96.8298V49.5125H91.5782C90.0499 49.5125 88.994 49.7626 88.4105 50.2627C87.8548 50.7629 87.5769 51.3881 87.5769 52.1383C87.5769 52.9719 87.8965 53.6388 88.5356 54.139C89.2024 54.6113 90.1055 54.8475 91.2447 54.8475C92.3284 54.8475 93.3009 54.5974 94.1623 54.0973C95.0237 53.5693 95.6489 52.8052 96.0379 51.8049L97.0382 54.8058C96.5658 56.2507 95.7045 57.3483 94.4541 58.0985C93.2037 58.8488 91.5921 59.2239 89.6192 59.2239Z" fill="#2F2F2F"/>
<path d="M121.679 59.2239C119.706 59.2239 118.011 58.8071 116.594 57.9735C115.177 57.1399 114.093 55.8756 113.343 54.1806C112.593 52.4579 112.217 50.2905 112.217 47.6786C112.217 45.0389 112.606 42.8715 113.384 41.1766C114.19 39.4816 115.302 38.2173 116.719 37.3837C118.136 36.5501 119.789 36.1333 121.679 36.1333C123.79 36.1333 125.68 36.6057 127.347 37.5504C129.042 38.4952 130.376 39.8289 131.348 41.5517C132.349 43.2744 132.849 45.3168 132.849 47.6786C132.849 50.0127 132.349 52.0411 131.348 53.7638C130.376 55.4866 129.042 56.8342 127.347 57.8068C125.68 58.7515 123.79 59.2239 121.679 59.2239ZM108.425 58.8904V27.9641H114.927V41.0099L114.51 47.6369L114.635 54.3057V58.8904H108.425ZM120.553 53.8889C121.637 53.8889 122.596 53.6388 123.429 53.1386C124.291 52.6385 124.971 51.9299 125.472 51.013C126 50.0682 126.263 48.9568 126.263 47.6786C126.263 46.3726 126 45.2612 125.472 44.3442C124.971 43.4273 124.291 42.7187 123.429 42.2186C122.596 41.7184 121.637 41.4683 120.553 41.4683C119.47 41.4683 118.497 41.7184 117.636 42.2186C116.774 42.7187 116.094 43.4273 115.593 44.3442C115.093 45.2612 114.843 46.3726 114.843 47.6786C114.843 48.9568 115.093 50.0682 115.593 51.013C116.094 51.9299 116.774 52.6385 117.636 53.1386C118.497 53.6388 119.47 53.8889 120.553 53.8889Z" fill="#2F2F2F"/>
<path d="M150.589 58.8904V54.5141L150.173 53.5554V45.7197C150.173 44.3303 149.742 43.2467 148.881 42.4686C148.047 41.6906 146.755 41.3016 145.004 41.3016C143.81 41.3016 142.629 41.4961 141.462 41.8851C140.322 42.2464 139.35 42.7465 138.544 43.3856L136.21 38.8425C137.433 37.9811 138.905 37.3143 140.628 36.8419C142.351 36.3695 144.101 36.1333 145.88 36.1333C149.297 36.1333 151.951 36.9391 153.84 38.5508C155.73 40.1624 156.675 42.677 156.675 46.0948V58.8904H150.589ZM143.754 59.2239C142.003 59.2239 140.503 58.9321 139.253 58.3486C138.002 57.7373 137.044 56.9176 136.377 55.8895C135.71 54.8614 135.376 53.7083 135.376 52.4301C135.376 51.0963 135.696 49.9293 136.335 48.929C137.002 47.9287 138.044 47.1507 139.461 46.5949C140.878 46.0114 142.726 45.7197 145.004 45.7197H150.965V49.5125H145.713C144.185 49.5125 143.129 49.7626 142.545 50.2627C141.99 50.7629 141.712 51.3881 141.712 52.1383C141.712 52.9719 142.031 53.6388 142.67 54.139C143.337 54.6113 144.24 54.8475 145.379 54.8475C146.463 54.8475 147.436 54.5974 148.297 54.0973C149.158 53.5693 149.784 52.8052 150.173 51.8049L151.173 54.8058C150.701 56.2507 149.839 57.3483 148.589 58.0985C147.338 58.8488 145.727 59.2239 143.754 59.2239Z" fill="#2F2F2F"/>
<path d="M175.813 59.2239C173.841 59.2239 172.146 58.8071 170.729 57.9735C169.311 57.1399 168.228 55.8756 167.478 54.1806C166.727 52.4579 166.352 50.2905 166.352 47.6786C166.352 45.0389 166.741 42.8715 167.519 41.1766C168.325 39.4816 169.436 38.2173 170.854 37.3837C172.271 36.5501 173.924 36.1333 175.813 36.1333C177.925 36.1333 179.815 36.6057 181.482 37.5504C183.177 38.4952 184.511 39.8289 185.483 41.5517C186.483 43.2744 186.984 45.3168 186.984 47.6786C186.984 50.0127 186.483 52.0411 185.483 53.7638C184.511 55.4866 183.177 56.8342 181.482 57.8068C179.815 58.7515 177.925 59.2239 175.813 59.2239ZM162.559 58.8904V27.9641H169.061V41.0099L168.645 47.6369L168.77 54.3057V58.8904H162.559ZM174.688 53.8889C175.772 53.8889 176.73 53.6388 177.564 53.1386C178.425 52.6385 179.106 51.9299 179.606 51.013C180.134 50.0682 180.398 48.9568 180.398 47.6786C180.398 46.3726 180.134 45.2612 179.606 44.3442C179.106 43.4273 178.425 42.7187 177.564 42.2186C176.73 41.7184 175.772 41.4683 174.688 41.4683C173.604 41.4683 172.632 41.7184 171.771 42.2186C170.909 42.7187 170.228 43.4273 169.728 44.3442C169.228 45.2612 168.978 46.3726 168.978 47.6786C168.978 48.9568 169.228 50.0682 169.728 51.013C170.228 51.9299 170.909 52.6385 171.771 53.1386C172.632 53.6388 173.604 53.8889 174.688 53.8889Z" fill="#2F2F2F"/>
<path d="M200.798 59.2239C198.936 59.2239 197.269 58.8626 195.796 58.1402C194.351 57.4178 193.226 56.3202 192.42 54.8475C191.614 53.347 191.211 51.4437 191.211 49.1374V36.4668H197.713V48.1788C197.713 50.0405 198.102 51.4159 198.88 52.305C199.686 53.1664 200.811 53.5971 202.256 53.5971C203.257 53.5971 204.146 53.3887 204.924 52.9719C205.702 52.5273 206.313 51.8605 206.758 50.9713C207.202 50.0543 207.425 48.9151 207.425 47.5536V36.4668H213.927V58.8904H207.758V52.7218L208.883 54.5141C208.133 56.0701 207.022 57.251 205.549 58.0568C204.104 58.8349 202.52 59.2239 200.798 59.2239Z" fill="#2F2F2F"/>
<path d="M219.95 58.8904V36.4668H226.161V42.8021L225.285 40.9682C225.952 39.3843 227.022 38.1895 228.495 37.3837C229.967 36.5501 231.76 36.1333 233.871 36.1333V42.1352C233.593 42.1074 233.343 42.0935 233.121 42.0935C232.899 42.0657 232.663 42.0518 232.413 42.0518C230.634 42.0518 229.189 42.5659 228.078 43.594C226.994 44.5943 226.452 46.1642 226.452 48.3038V58.8904H219.95Z" fill="#2F2F2F"/>
<path d="M250.026 58.8904V54.5141L249.61 53.5554V45.7197C249.61 44.3303 249.179 43.2467 248.318 42.4686C247.484 41.6906 246.192 41.3016 244.441 41.3016C243.247 41.3016 242.066 41.4961 240.899 41.8851C239.759 42.2464 238.787 42.7465 237.981 43.3856L235.647 38.8425C236.87 37.9811 238.342 37.3143 240.065 36.8419C241.788 36.3695 243.538 36.1333 245.317 36.1333C248.734 36.1333 251.388 36.9391 253.277 38.5508C255.167 40.1624 256.112 42.677 256.112 46.0948V58.8904H250.026ZM243.191 59.2239C241.44 59.2239 239.94 58.9321 238.69 58.3486C237.439 57.7373 236.481 56.9176 235.814 55.8895C235.147 54.8614 234.813 53.7083 234.813 52.4301C234.813 51.0963 235.133 49.9293 235.772 48.929C236.439 47.9287 237.481 47.1507 238.898 46.5949C240.315 46.0114 242.163 45.7197 244.441 45.7197H250.402V49.5125H245.15C243.622 49.5125 242.566 49.7626 241.982 50.2627C241.427 50.7629 241.149 51.3881 241.149 52.1383C241.149 52.9719 241.468 53.6388 242.107 54.139C242.774 54.6113 243.677 54.8475 244.816 54.8475C245.9 54.8475 246.873 54.5974 247.734 54.0973C248.595 53.5693 249.221 52.8052 249.61 51.8049L250.61 54.8058C250.138 56.2507 249.276 57.3483 248.026 58.0985C246.775 58.8488 245.164 59.2239 243.191 59.2239Z" fill="#2F2F2F"/>
<path d="M0 3.05437C0 1.36749 1.36749 0 3.05437 0H21.9915C23.6783 0 25.0458 1.36749 25.0458 3.05437V21.9915C25.0458 23.6783 23.6783 25.0458 21.9915 25.0458H3.05437C1.36749 25.0458 0 23.6783 0 21.9915V3.05437Z" fill="#F2F2F2"/>
<path d="M0 31.0302C0 29.3433 1.36749 27.9758 3.05437 27.9758H27.6929C29.3798 27.9758 30.7473 29.3433 30.7473 31.0302V55.6688C30.7473 57.3557 29.3798 58.7231 27.6929 58.7231H3.05437C1.36749 58.7231 0 57.3557 0 55.6688V31.0302Z" fill="#289ADE"/>
<g filter="url(#filter0_d_898_2092)">
<rect x="11.6064" y="7.53369" width="2.03625" height="9.16311" fill="white"/>
</g>
<g filter="url(#filter1_d_898_2092)">
<rect x="10.1816" y="37.7495" width="2.03625" height="9.16311" fill="white"/>
</g>
<g filter="url(#filter2_d_898_2092)">
<rect x="18.7339" y="37.7495" width="2.03625" height="9.16311" fill="white"/>
</g>
<defs>
<filter id="filter0_d_898_2092" x="10.6064" y="5.53369" width="6.03613" height="13.1631" filterUnits="userSpaceOnUse" color-interpolation-filters="sRGB">
<feFlood flood-opacity="0" result="BackgroundImageFix"/>
<feColorMatrix in="SourceAlpha" type="matrix" values="0 0 0 0 0 0 0 0 0 0 0 0 0 0 0 0 0 0 127 0" result="hardAlpha"/>
<feOffset dx="1"/>
<feGaussianBlur stdDeviation="1"/>
<feComposite in2="hardAlpha" operator="out"/>
<feColorMatrix type="matrix" values="0 0 0 0 0 0 0 0 0 0 0 0 0 0 0 0 0 0 0.32 0"/>
<feBlend mode="normal" in2="BackgroundImageFix" result="effect1_dropShadow_898_2092"/>
<feBlend mode="normal" in="SourceGraphic" in2="effect1_dropShadow_898_2092" result="shape"/>
</filter>
<filter id="filter1_d_898_2092" x="9.18164" y="35.7495" width="6.03613" height="13.1631" filterUnits="userSpaceOnUse" color-interpolation-filters="sRGB">
<feFlood flood-opacity="0" result="BackgroundImageFix"/>
<feColorMatrix in="SourceAlpha" type="matrix" values="0 0 0 0 0 0 0 0 0 0 0 0 0 0 0 0 0 0 127 0" result="hardAlpha"/>
<feOffset dx="1"/>
<feGaussianBlur stdDeviation="1"/>
<feComposite in2="hardAlpha" operator="out"/>
<feColorMatrix type="matrix" values="0 0 0 0 0 0 0 0 0 0 0 0 0 0 0 0 0 0 0.46 0"/>
<feBlend mode="normal" in2="BackgroundImageFix" result="effect1_dropShadow_898_2092"/>
<feBlend mode="normal" in="SourceGraphic" in2="effect1_dropShadow_898_2092" result="shape"/>
</filter>
<filter id="filter2_d_898_2092" x="17.7339" y="35.7495" width="6.03613" height="13.1631" filterUnits="userSpaceOnUse" color-interpolation-filters="sRGB">
<feFlood flood-opacity="0" result="BackgroundImageFix"/>
<feColorMatrix in="SourceAlpha" type="matrix" values="0 0 0 0 0 0 0 0 0 0 0 0 0 0 0 0 0 0 127 0" result="hardAlpha"/>
<feOffset dx="1"/>
<feGaussianBlur stdDeviation="1"/>
<feComposite in2="hardAlpha" operator="out"/>
<feColorMatrix type="matrix" values="0 0 0 0 0 0 0 0 0 0 0 0 0 0 0 0 0 0 0.46 0"/>
<feBlend mode="normal" in2="BackgroundImageFix" result="effect1_dropShadow_898_2092"/>
<feBlend mode="normal" in="SourceGraphic" in2="effect1_dropShadow_898_2092" result="shape"/>
</filter>
</defs>
</svg>
