<svg width="22" height="40" viewBox="0 0 22 40" fill="none" xmlns="http://www.w3.org/2000/svg">
<g id="Group">
<g id="Vector">
<mask id="path-1-inside-1_977_3376" fill="white">
<path d="M3.61035 5.90278C3.61035 5.66335 3.70547 5.43372 3.87477 5.26442C4.04407 5.09511 4.2737 5 4.51313 5H6.31868C6.55812 5 6.78774 5.09511 6.95704 5.26442C7.12635 5.43372 7.22146 5.66335 7.22146 5.90278V7.70833C7.22146 7.94776 7.12635 8.17739 6.95704 8.34669C6.78774 8.516 6.55812 8.61111 6.31868 8.61111H4.51313C4.2737 8.61111 4.04407 8.516 3.87477 8.34669C3.70547 8.17739 3.61035 7.94776 3.61035 7.70833V5.90278ZM9.02702 5.90278C9.02702 5.66335 9.12213 5.43372 9.29143 5.26442C9.46074 5.09511 9.69036 5 9.92979 5H11.7353C11.9748 5 12.2044 5.09511 12.3737 5.26442C12.543 5.43372 12.6381 5.66335 12.6381 5.90278V7.70833C12.6381 7.94776 12.543 8.17739 12.3737 8.34669C12.2044 8.516 11.9748 8.61111 11.7353 8.61111H9.92979C9.69036 8.61111 9.46074 8.516 9.29143 8.34669C9.12213 8.17739 9.02702 7.94776 9.02702 7.70833V5.90278ZM15.3465 5C15.107 5 14.8774 5.09511 14.7081 5.26442C14.5388 5.43372 14.4437 5.66335 14.4437 5.90278V7.70833C14.4437 7.94776 14.5388 8.17739 14.7081 8.34669C14.8774 8.516 15.107 8.61111 15.3465 8.61111H17.152C17.3914 8.61111 17.6211 8.516 17.7904 8.34669C17.9597 8.17739 18.0548 7.94776 18.0548 7.70833V5.90278C18.0548 5.66335 17.9597 5.43372 17.7904 5.26442C17.6211 5.09511 17.3914 5 17.152 5H15.3465ZM3.61035 11.3194C3.61035 11.08 3.70547 10.8504 3.87477 10.6811C4.04407 10.5118 4.2737 10.4167 4.51313 10.4167H6.31868C6.55812 10.4167 6.78774 10.5118 6.95704 10.6811C7.12635 10.8504 7.22146 11.08 7.22146 11.3194V13.125C7.22146 13.3644 7.12635 13.5941 6.95704 13.7634C6.78774 13.9327 6.55812 14.0278 6.31868 14.0278H4.51313C4.2737 14.0278 4.04407 13.9327 3.87477 13.7634C3.70547 13.5941 3.61035 13.3644 3.61035 13.125V11.3194ZM9.92979 10.4167C9.69036 10.4167 9.46074 10.5118 9.29143 10.6811C9.12213 10.8504 9.02702 11.08 9.02702 11.3194V13.125C9.02702 13.3644 9.12213 13.5941 9.29143 13.7634C9.46074 13.9327 9.69036 14.0278 9.92979 14.0278H11.7353C11.9748 14.0278 12.2044 13.9327 12.3737 13.7634C12.543 13.5941 12.6381 13.3644 12.6381 13.125V11.3194C12.6381 11.08 12.543 10.8504 12.3737 10.6811C12.2044 10.5118 11.9748 10.4167 11.7353 10.4167H9.92979ZM14.4437 11.3194C14.4437 11.08 14.5388 10.8504 14.7081 10.6811C14.8774 10.5118 15.107 10.4167 15.3465 10.4167H17.152C17.3914 10.4167 17.6211 10.5118 17.7904 10.6811C17.9597 10.8504 18.0548 11.08 18.0548 11.3194V13.125C18.0548 13.3644 17.9597 13.5941 17.7904 13.7634C17.6211 13.9327 17.3914 14.0278 17.152 14.0278H15.3465C15.107 14.0278 14.8774 13.9327 14.7081 13.7634C14.5388 13.5941 14.4437 13.3644 14.4437 13.125V11.3194ZM4.51313 15.8333C4.2737 15.8333 4.04407 15.9284 3.87477 16.0977C3.70547 16.2671 3.61035 16.4967 3.61035 16.7361V18.5417C3.61035 18.7811 3.70547 19.0107 3.87477 19.18C4.04407 19.3493 4.2737 19.4444 4.51313 19.4444H6.31868C6.55812 19.4444 6.78774 19.3493 6.95704 19.18C7.12635 19.0107 7.22146 18.7811 7.22146 18.5417V16.7361C7.22146 16.4967 7.12635 16.2671 6.95704 16.0977C6.78774 15.9284 6.55812 15.8333 6.31868 15.8333H4.51313ZM9.02702 16.7361C9.02702 16.4967 9.12213 16.2671 9.29143 16.0977C9.46074 15.9284 9.69036 15.8333 9.92979 15.8333H11.7353C11.9748 15.8333 12.2044 15.9284 12.3737 16.0977C12.543 16.2671 12.6381 16.4967 12.6381 16.7361V18.5417C12.6381 18.7811 12.543 19.0107 12.3737 19.18C12.2044 19.3493 11.9748 19.4444 11.7353 19.4444H9.92979C9.69036 19.4444 9.46074 19.3493 9.29143 19.18C9.12213 19.0107 9.02702 18.7811 9.02702 18.5417V16.7361ZM15.3465 15.8333C15.107 15.8333 14.8774 15.9284 14.7081 16.0977C14.5388 16.2671 14.4437 16.4967 14.4437 16.7361V18.5417C14.4437 18.7811 14.5388 19.0107 14.7081 19.18C14.8774 19.3493 15.107 19.4444 15.3465 19.4444H17.152C17.3914 19.4444 17.6211 19.3493 17.7904 19.18C17.9597 19.0107 18.0548 18.7811 18.0548 18.5417V16.7361C18.0548 16.4967 17.9597 16.2671 17.7904 16.0977C17.6211 15.9284 17.3914 15.8333 17.152 15.8333H15.3465Z"/>
</mask>
<path d="M3.61035 5.90278C3.61035 5.66335 3.70547 5.43372 3.87477 5.26442C4.04407 5.09511 4.2737 5 4.51313 5H6.31868C6.55812 5 6.78774 5.09511 6.95704 5.26442C7.12635 5.43372 7.22146 5.66335 7.22146 5.90278V7.70833C7.22146 7.94776 7.12635 8.17739 6.95704 8.34669C6.78774 8.516 6.55812 8.61111 6.31868 8.61111H4.51313C4.2737 8.61111 4.04407 8.516 3.87477 8.34669C3.70547 8.17739 3.61035 7.94776 3.61035 7.70833V5.90278ZM9.02702 5.90278C9.02702 5.66335 9.12213 5.43372 9.29143 5.26442C9.46074 5.09511 9.69036 5 9.92979 5H11.7353C11.9748 5 12.2044 5.09511 12.3737 5.26442C12.543 5.43372 12.6381 5.66335 12.6381 5.90278V7.70833C12.6381 7.94776 12.543 8.17739 12.3737 8.34669C12.2044 8.516 11.9748 8.61111 11.7353 8.61111H9.92979C9.69036 8.61111 9.46074 8.516 9.29143 8.34669C9.12213 8.17739 9.02702 7.94776 9.02702 7.70833V5.90278ZM15.3465 5C15.107 5 14.8774 5.09511 14.7081 5.26442C14.5388 5.43372 14.4437 5.66335 14.4437 5.90278V7.70833C14.4437 7.94776 14.5388 8.17739 14.7081 8.34669C14.8774 8.516 15.107 8.61111 15.3465 8.61111H17.152C17.3914 8.61111 17.6211 8.516 17.7904 8.34669C17.9597 8.17739 18.0548 7.94776 18.0548 7.70833V5.90278C18.0548 5.66335 17.9597 5.43372 17.7904 5.26442C17.6211 5.09511 17.3914 5 17.152 5H15.3465ZM3.61035 11.3194C3.61035 11.08 3.70547 10.8504 3.87477 10.6811C4.04407 10.5118 4.2737 10.4167 4.51313 10.4167H6.31868C6.55812 10.4167 6.78774 10.5118 6.95704 10.6811C7.12635 10.8504 7.22146 11.08 7.22146 11.3194V13.125C7.22146 13.3644 7.12635 13.5941 6.95704 13.7634C6.78774 13.9327 6.55812 14.0278 6.31868 14.0278H4.51313C4.2737 14.0278 4.04407 13.9327 3.87477 13.7634C3.70547 13.5941 3.61035 13.3644 3.61035 13.125V11.3194ZM9.92979 10.4167C9.69036 10.4167 9.46074 10.5118 9.29143 10.6811C9.12213 10.8504 9.02702 11.08 9.02702 11.3194V13.125C9.02702 13.3644 9.12213 13.5941 9.29143 13.7634C9.46074 13.9327 9.69036 14.0278 9.92979 14.0278H11.7353C11.9748 14.0278 12.2044 13.9327 12.3737 13.7634C12.543 13.5941 12.6381 13.3644 12.6381 13.125V11.3194C12.6381 11.08 12.543 10.8504 12.3737 10.6811C12.2044 10.5118 11.9748 10.4167 11.7353 10.4167H9.92979ZM14.4437 11.3194C14.4437 11.08 14.5388 10.8504 14.7081 10.6811C14.8774 10.5118 15.107 10.4167 15.3465 10.4167H17.152C17.3914 10.4167 17.6211 10.5118 17.7904 10.6811C17.9597 10.8504 18.0548 11.08 18.0548 11.3194V13.125C18.0548 13.3644 17.9597 13.5941 17.7904 13.7634C17.6211 13.9327 17.3914 14.0278 17.152 14.0278H15.3465C15.107 14.0278 14.8774 13.9327 14.7081 13.7634C14.5388 13.5941 14.4437 13.3644 14.4437 13.125V11.3194ZM4.51313 15.8333C4.2737 15.8333 4.04407 15.9284 3.87477 16.0977C3.70547 16.2671 3.61035 16.4967 3.61035 16.7361V18.5417C3.61035 18.7811 3.70547 19.0107 3.87477 19.18C4.04407 19.3493 4.2737 19.4444 4.51313 19.4444H6.31868C6.55812 19.4444 6.78774 19.3493 6.95704 19.18C7.12635 19.0107 7.22146 18.7811 7.22146 18.5417V16.7361C7.22146 16.4967 7.12635 16.2671 6.95704 16.0977C6.78774 15.9284 6.55812 15.8333 6.31868 15.8333H4.51313ZM9.02702 16.7361C9.02702 16.4967 9.12213 16.2671 9.29143 16.0977C9.46074 15.9284 9.69036 15.8333 9.92979 15.8333H11.7353C11.9748 15.8333 12.2044 15.9284 12.3737 16.0977C12.543 16.2671 12.6381 16.4967 12.6381 16.7361V18.5417C12.6381 18.7811 12.543 19.0107 12.3737 19.18C12.2044 19.3493 11.9748 19.4444 11.7353 19.4444H9.92979C9.69036 19.4444 9.46074 19.3493 9.29143 19.18C9.12213 19.0107 9.02702 18.7811 9.02702 18.5417V16.7361ZM15.3465 15.8333C15.107 15.8333 14.8774 15.9284 14.7081 16.0977C14.5388 16.2671 14.4437 16.4967 14.4437 16.7361V18.5417C14.4437 18.7811 14.5388 19.0107 14.7081 19.18C14.8774 19.3493 15.107 19.4444 15.3465 19.4444H17.152C17.3914 19.4444 17.6211 19.3493 17.7904 19.18C17.9597 19.0107 18.0548 18.7811 18.0548 18.5417V16.7361C18.0548 16.4967 17.9597 16.2671 17.7904 16.0977C17.6211 15.9284 17.3914 15.8333 17.152 15.8333H15.3465Z" fill="#8E8E93" stroke="#8E8E93" stroke-width="2" mask="url(#path-1-inside-1_977_3376)"/>
</g>
<rect id="Rectangle 2876" x="0.5" y="0.5" width="20.6667" height="39" rx="1.5" stroke="#8E8E93"/>
<path id="Vector_2" d="M17.083 36.7685H17.583V36.2685V29.2427L17.833 29.239V36.2685C17.833 36.4601 17.7558 36.6453 17.616 36.7831C17.4759 36.9212 17.2843 37 17.083 37H13.208V31.3424V30.8424H12.708H8.95801H8.45801V31.3424V37H4.58301C4.38171 37 4.19014 36.9212 4.05004 36.7831C3.91019 36.6453 3.83301 36.4601 3.83301 36.2685V29.3793L4.08301 29.3793V36.2685V36.7685H4.58301H7.70801H8.20801V36.2685V30.6108H13.458V36.2685V36.7685H13.958H17.083Z" fill="#8E8E93" stroke="#8E8E93"/>
</g>
</svg>
