<svg width="73" height="76" viewBox="0 0 73 76" fill="none" xmlns="http://www.w3.org/2000/svg">
<g id="lets-icons:calendar-add-light" filter="url(#filter0_d_836_3257)">
<g id="Group">
<path id="Vector" d="M59.875 29.75V27.25C59.875 23.75 59.875 22 59.1937 20.6625C58.5945 19.4865 57.6385 18.5304 56.4625 17.9312C55.125 17.25 53.375 17.25 49.875 17.25H23C19.5 17.25 17.75 17.25 16.4125 17.9312C15.2365 18.5304 14.2804 19.4865 13.6812 20.6625C13 22 13 23.75 13 27.25V29.75M59.875 29.75V51C59.875 54.5 59.875 56.25 59.1937 57.5875C58.5945 58.7635 57.6385 59.7195 56.4625 60.3187C55.125 61 53.375 61 49.875 61H23C19.5 61 17.75 61 16.4125 60.3187C15.2365 59.7195 14.2804 58.7635 13.6812 57.5875C13 56.25 13 54.5 13 51V29.75M59.875 29.75H13" stroke="#CC0026"/>
<path id="Vector_2" d="M25.5 11V23.5M47.375 11V23.5M36.4375 53.1875V37.5625M44.25 45.375H28.625" stroke="#CC0026" stroke-linecap="round"/>
</g>
</g>
<defs>
<filter id="filter0_d_836_3257" x="0.5" y="0.5" width="71.875" height="75" filterUnits="userSpaceOnUse" color-interpolation-filters="sRGB">
<feFlood flood-opacity="0" result="BackgroundImageFix"/>
<feColorMatrix in="SourceAlpha" type="matrix" values="0 0 0 0 0 0 0 0 0 0 0 0 0 0 0 0 0 0 127 0" result="hardAlpha"/>
<feOffset dy="2"/>
<feGaussianBlur stdDeviation="6"/>
<feComposite in2="hardAlpha" operator="out"/>
<feColorMatrix type="matrix" values="0 0 0 0 0 0 0 0 0 0 0 0 0 0 0 0 0 0 0.15 0"/>
<feBlend mode="normal" in2="BackgroundImageFix" result="effect1_dropShadow_836_3257"/>
<feBlend mode="normal" in="SourceGraphic" in2="effect1_dropShadow_836_3257" result="shape"/>
</filter>
</defs>
</svg>
