<svg width="21" height="22" viewBox="0 0 21 22" fill="none" xmlns="http://www.w3.org/2000/svg">
<g id="solar:calendar-bold">
<path id="Vector" d="M6.63536 1.625C6.63536 1.42609 6.55634 1.23532 6.41569 1.09467C6.27503 0.954018 6.08427 0.875 5.88536 0.875C5.68644 0.875 5.49568 0.954018 5.35503 1.09467C5.21437 1.23532 5.13536 1.42609 5.13536 1.625V3.205C3.69536 3.32 2.75136 3.602 2.05736 4.297C1.36236 4.991 1.08036 5.936 0.964355 7.375H20.8064C20.6904 5.935 20.4084 4.991 19.7134 4.297C19.0194 3.602 18.0744 3.32 16.6354 3.204V1.625C16.6354 1.42609 16.5563 1.23532 16.4157 1.09467C16.275 0.954018 16.0843 0.875 15.8854 0.875C15.6864 0.875 15.4957 0.954018 15.355 1.09467C15.2144 1.23532 15.1354 1.42609 15.1354 1.625V3.138C14.4704 3.125 13.7244 3.125 12.8854 3.125H8.88536C8.04636 3.125 7.30036 3.125 6.63536 3.138V1.625Z" fill="#289ADE"/>
<path id="Vector_2" fill-rule="evenodd" clip-rule="evenodd" d="M0.885254 11.125C0.885254 10.286 0.885254 9.54 0.898254 8.875H20.8723C20.8853 9.54 20.8853 10.286 20.8853 11.125V13.125C20.8853 16.896 20.8853 18.782 19.7133 19.953C18.5423 21.125 16.6563 21.125 12.8853 21.125H8.88525C5.11425 21.125 3.22825 21.125 2.05725 19.953C0.885254 18.782 0.885254 16.896 0.885254 13.125V11.125ZM15.8853 13.125C16.1505 13.125 16.4048 13.0196 16.5924 12.8321C16.7799 12.6446 16.8853 12.3902 16.8853 12.125C16.8853 11.8598 16.7799 11.6054 16.5924 11.4179C16.4048 11.2304 16.1505 11.125 15.8853 11.125C15.62 11.125 15.3657 11.2304 15.1781 11.4179C14.9906 11.6054 14.8853 11.8598 14.8853 12.125C14.8853 12.3902 14.9906 12.6446 15.1781 12.8321C15.3657 13.0196 15.62 13.125 15.8853 13.125ZM15.8853 17.125C16.1505 17.125 16.4048 17.0196 16.5924 16.8321C16.7799 16.6446 16.8853 16.3902 16.8853 16.125C16.8853 15.8598 16.7799 15.6054 16.5924 15.4179C16.4048 15.2304 16.1505 15.125 15.8853 15.125C15.62 15.125 15.3657 15.2304 15.1781 15.4179C14.9906 15.6054 14.8853 15.8598 14.8853 16.125C14.8853 16.3902 14.9906 16.6446 15.1781 16.8321C15.3657 17.0196 15.62 17.125 15.8853 17.125ZM11.8853 12.125C11.8853 12.3902 11.7799 12.6446 11.5924 12.8321C11.4048 13.0196 11.1505 13.125 10.8853 13.125C10.62 13.125 10.3657 13.0196 10.1781 12.8321C9.99061 12.6446 9.88525 12.3902 9.88525 12.125C9.88525 11.8598 9.99061 11.6054 10.1781 11.4179C10.3657 11.2304 10.62 11.125 10.8853 11.125C11.1505 11.125 11.4048 11.2304 11.5924 11.4179C11.7799 11.6054 11.8853 11.8598 11.8853 12.125ZM11.8853 16.125C11.8853 16.3902 11.7799 16.6446 11.5924 16.8321C11.4048 17.0196 11.1505 17.125 10.8853 17.125C10.62 17.125 10.3657 17.0196 10.1781 16.8321C9.99061 16.6446 9.88525 16.3902 9.88525 16.125C9.88525 15.8598 9.99061 15.6054 10.1781 15.4179C10.3657 15.2304 10.62 15.125 10.8853 15.125C11.1505 15.125 11.4048 15.2304 11.5924 15.4179C11.7799 15.6054 11.8853 15.8598 11.8853 16.125ZM5.88525 13.125C6.15047 13.125 6.40482 13.0196 6.59236 12.8321C6.7799 12.6446 6.88525 12.3902 6.88525 12.125C6.88525 11.8598 6.7799 11.6054 6.59236 11.4179C6.40482 11.2304 6.15047 11.125 5.88525 11.125C5.62004 11.125 5.36568 11.2304 5.17815 11.4179C4.99061 11.6054 4.88525 11.8598 4.88525 12.125C4.88525 12.3902 4.99061 12.6446 5.17815 12.8321C5.36568 13.0196 5.62004 13.125 5.88525 13.125ZM5.88525 17.125C6.15047 17.125 6.40482 17.0196 6.59236 16.8321C6.7799 16.6446 6.88525 16.3902 6.88525 16.125C6.88525 15.8598 6.7799 15.6054 6.59236 15.4179C6.40482 15.2304 6.15047 15.125 5.88525 15.125C5.62004 15.125 5.36568 15.2304 5.17815 15.4179C4.99061 15.6054 4.88525 15.8598 4.88525 16.125C4.88525 16.3902 4.99061 16.6446 5.17815 16.8321C5.36568 17.0196 5.62004 17.125 5.88525 17.125Z" fill="#289ADE"/>
</g>
</svg>
