<svg width="16" height="17" viewBox="0 0 16 17" fill="none" xmlns="http://www.w3.org/2000/svg">
<g id="Icon">
<g id="Group">
<g id="Group_2">
<path id="Vector" d="M15.6217 6.7599L11.2034 5.09267L9.35657 2.65813C9.19598 2.452 8.99369 2.28599 8.76439 2.17215C8.53508 2.05831 8.28451 1.99951 8.03086 2H3.46171C3.18227 1.9999 2.90704 2.07158 2.66003 2.20877C2.41302 2.34597 2.20173 2.54452 2.04457 2.78712L0.494858 5.17666C0.172088 5.67397 -0.000368952 6.2619 5.92657e-07 6.86368V11.599C5.92657e-07 11.7581 0.0602045 11.9107 0.167368 12.0232C0.274532 12.1357 0.419877 12.1989 0.571429 12.1989H1.79543C1.91973 12.7138 2.20402 13.1705 2.6033 13.4967C3.00258 13.8229 3.49407 14 4 14C4.50593 14 4.99742 13.8229 5.3967 13.4967C5.79598 13.1705 6.08027 12.7138 6.20457 12.1989H9.79543C9.91973 12.7138 10.204 13.1705 10.6033 13.4967C11.0026 13.8229 11.4941 14 12 14C12.5059 14 12.9974 13.8229 13.3967 13.4967C13.796 13.1705 14.0803 12.7138 14.2046 12.1989H15.4286C15.5801 12.1989 15.7255 12.1357 15.8326 12.0232C15.9398 11.9107 16 11.7581 16 11.599V7.32443C16 7.20089 15.9636 7.08037 15.8959 6.97933C15.8282 6.87829 15.7325 6.80165 15.6217 6.7599ZM4 12.7989C3.77396 12.7989 3.553 12.7285 3.36506 12.5966C3.17712 12.4648 3.03064 12.2774 2.94414 12.0582C2.85764 11.8389 2.83501 11.5976 2.8791 11.3649C2.9232 11.1321 3.03205 10.9183 3.19188 10.7505C3.35171 10.5827 3.55535 10.4685 3.77704 10.4222C3.99873 10.3759 4.22852 10.3996 4.43735 10.4904C4.64618 10.5813 4.82467 10.735 4.95025 10.9324C5.07583 11.1297 5.14286 11.3617 5.14286 11.599C5.1424 11.9171 5.02185 12.222 4.80762 12.4469C4.59339 12.6718 4.30297 12.7984 4 12.7989ZM12 12.7989C11.774 12.7989 11.553 12.7285 11.3651 12.5966C11.1771 12.4648 11.0306 12.2774 10.9441 12.0582C10.8576 11.8389 10.835 11.5976 10.8791 11.3649C10.9232 11.1321 11.032 10.9183 11.1919 10.7505C11.3517 10.5827 11.5553 10.4685 11.777 10.4222C11.9987 10.3759 12.2285 10.3996 12.4374 10.4904C12.6462 10.5813 12.8247 10.735 12.9503 10.9324C13.0758 11.1297 13.1429 11.3617 13.1429 11.599C13.1426 11.9171 13.022 12.2221 12.8078 12.4471C12.5935 12.672 12.303 12.7985 12 12.7989ZM14.8571 10.999H14.2046C14.0803 10.4842 13.796 10.0275 13.3967 9.70128C12.9974 9.37507 12.5059 9.19796 12 9.19796C11.4941 9.19796 11.0026 9.37507 10.6033 9.70128C10.204 10.0275 9.91973 10.4842 9.79543 10.999H6.20457C6.08027 10.4842 5.79598 10.0275 5.3967 9.70128C4.99742 9.37507 4.50593 9.19796 4 9.19796C3.49407 9.19796 3.00258 9.37507 2.6033 9.70128C2.20402 10.0275 1.91973 10.4842 1.79543 10.999H1.14286V6.86368C1.1428 6.50245 1.24634 6.14957 1.44 5.85099L2.98914 3.46265C3.04153 3.3817 3.11197 3.31544 3.19434 3.26964C3.27671 3.22384 3.36851 3.19989 3.46171 3.19988H8.03086C8.114 3.19953 8.1962 3.21838 8.27165 3.25508C8.34709 3.29178 8.41393 3.34543 8.46743 3.41225L10.4103 5.97338C10.4764 6.06046 10.5642 6.12651 10.664 6.16416L14.8571 7.74619V10.999Z" fill="#8E8E93"/>
</g>
</g>
</g>
</svg>
