<svg width="69" height="24" viewBox="0 0 69 24" fill="none" xmlns="http://www.w3.org/2000/svg">
<path d="M0 3C0 1.34315 1.34315 0 3 0H61.3014C62.3552 0 63.3317 0.552897 63.8739 1.45651L68.0739 8.45651C68.6439 9.40656 68.6439 10.5934 68.0739 11.5435L63.8739 18.5435C63.3317 19.4471 62.3552 20 61.3014 20H0V3Z" fill="#289ADE"/>
<path d="M8.72 6.6H14.552V8.064H10.352V10.248H14V11.7H10.352V15H8.72V6.6ZM17.9345 13.824C18.6665 13.824 19.1945 13.488 19.5185 12.648L20.8265 13.128C20.3465 14.52 19.2545 15.144 17.9945 15.144C16.1705 15.144 14.8985 13.848 14.8985 11.904C14.8985 9.984 16.1465 8.676 17.9225 8.676C19.6385 8.676 20.8385 9.972 20.8385 11.892C20.8385 12 20.8385 12.144 20.8265 12.252H16.4705C16.5665 13.332 17.1425 13.824 17.9345 13.824ZM17.9225 9.924C17.1665 9.924 16.6865 10.344 16.5185 11.196H19.2665C19.0985 10.32 18.5945 9.924 17.9225 9.924ZM24.3636 8.676C25.8516 8.676 27.1356 9.444 27.1356 11.112V15H25.6956V14.4C25.3116 14.892 24.6876 15.144 23.8716 15.144C22.4316 15.144 21.4836 14.424 21.4836 13.212C21.4836 12.048 22.4676 11.292 23.9796 11.292C24.6876 11.292 25.2276 11.484 25.5876 11.832V11.268C25.5876 10.44 25.1076 10.056 24.3036 10.056C23.6196 10.056 23.1516 10.416 22.9236 11.04L21.6396 10.5C22.0596 9.192 23.1396 8.676 24.3636 8.676ZM24.3516 14.016C25.1076 14.016 25.6236 13.728 25.6236 13.2C25.6236 12.672 25.1076 12.372 24.3516 12.372C23.5956 12.372 23.0796 12.672 23.0796 13.2C23.0796 13.728 23.5956 14.016 24.3516 14.016ZM28.7954 12.852V10.056H27.6674V8.82H28.7954V7.632L30.3434 6.78V8.82H31.7234V10.056H30.3434V12.78C30.3434 13.368 30.5714 13.668 31.0634 13.668H31.7234V15H30.8714C29.5514 15 28.7954 14.172 28.7954 12.852ZM35.2403 15.144C33.6923 15.144 32.5163 14.172 32.5163 12.516V8.82H34.0763V12.42C34.0763 13.344 34.5683 13.764 35.2403 13.764C35.9243 13.764 36.4043 13.344 36.4043 12.42V8.82H37.9643V12.516C37.9643 14.172 36.8003 15.144 35.2403 15.144ZM42.2002 8.676H42.5242V10.332H41.8762C41.1562 10.332 40.6402 10.848 40.6402 11.76V15H39.0922V8.82H40.6402V9.708C40.9882 8.988 41.5402 8.676 42.2002 8.676ZM45.8251 13.824C46.5571 13.824 47.0851 13.488 47.4091 12.648L48.7171 13.128C48.2371 14.52 47.1451 15.144 45.8851 15.144C44.0611 15.144 42.7891 13.848 42.7891 11.904C42.7891 9.984 44.0371 8.676 45.8131 8.676C47.5291 8.676 48.7291 9.972 48.7291 11.892C48.7291 12 48.7291 12.144 48.7171 12.252H44.3611C44.4571 13.332 45.0331 13.824 45.8251 13.824ZM45.8131 9.924C45.0571 9.924 44.5771 10.344 44.4091 11.196H47.1571C46.9891 10.32 46.4851 9.924 45.8131 9.924ZM54.1022 9.72V6.6H55.6502V15H54.1022V14.1C53.7182 14.712 53.1062 15.144 52.1822 15.144C50.5982 15.144 49.4102 13.764 49.4102 11.904C49.4102 10.056 50.5982 8.676 52.1822 8.676C53.1062 8.676 53.7182 9.108 54.1022 9.72ZM52.5662 13.764C53.4902 13.764 54.1262 13.092 54.1262 11.904C54.1262 10.716 53.4902 10.056 52.5662 10.056C51.6422 10.056 50.9942 10.716 50.9942 11.904C50.9942 13.092 51.6422 13.764 52.5662 13.764Z" fill="white"/>
<path d="M4 24V20L0 20L4 24Z" fill="#2881B6"/>
</svg>
