<svg width="25" height="24" viewBox="0 0 25 24" fill="none" xmlns="http://www.w3.org/2000/svg">
<g id="Icon">
<path id="Vector" d="M6.5 13.5V3.75M6.5 13.5C6.89782 13.5 7.27936 13.658 7.56066 13.9393C7.84196 14.2206 8 14.6022 8 15C8 15.3978 7.84196 15.7794 7.56066 16.0607C7.27936 16.342 6.89782 16.5 6.5 16.5M6.5 13.5C6.10218 13.5 5.72064 13.658 5.43934 13.9393C5.15804 14.2206 5 14.6022 5 15C5 15.3978 5.15804 15.7794 5.43934 16.0607C5.72064 16.342 6.10218 16.5 6.5 16.5M6.5 20.25V16.5M18.5 13.5V3.75M18.5 13.5C18.8978 13.5 19.2794 13.658 19.5607 13.9393C19.842 14.2206 20 14.6022 20 15C20 15.3978 19.842 15.7794 19.5607 16.0607C19.2794 16.342 18.8978 16.5 18.5 16.5M18.5 13.5C18.1022 13.5 17.7206 13.658 17.4393 13.9393C17.158 14.2206 17 14.6022 17 15C17 15.3978 17.158 15.7794 17.4393 16.0607C17.7206 16.342 18.1022 16.5 18.5 16.5M18.5 20.25V16.5M12.5 7.5V3.75M12.5 7.5C12.8978 7.5 13.2794 7.65804 13.5607 7.93934C13.842 8.22064 14 8.60218 14 9C14 9.39782 13.842 9.77936 13.5607 10.0607C13.2794 10.342 12.8978 10.5 12.5 10.5M12.5 7.5C12.1022 7.5 11.7206 7.65804 11.4393 7.93934C11.158 8.22064 11 8.60218 11 9C11 9.39782 11.158 9.77936 11.4393 10.0607C11.7206 10.342 12.1022 10.5 12.5 10.5M12.5 20.25V10.5" stroke="#C1C1C1" stroke-width="1.5" stroke-linecap="round" stroke-linejoin="round"/>
</g>
</svg>
