<svg width="63" height="24" viewBox="0 0 63 24" fill="none" xmlns="http://www.w3.org/2000/svg">
<path d="M0 3C0 1.34315 1.34315 0 3 0H55.3014C56.3552 0 57.3317 0.552897 57.8739 1.45651L62.0739 8.45651C62.6439 9.40656 62.6439 10.5934 62.0739 11.5435L57.8739 18.5435C57.3317 19.4471 56.3552 20 55.3014 20H0V3Z" fill="#E4002B"/>
<path d="M8.72 6.6H14.552V8.064H10.352V10.248H14V11.7H10.352V15H8.72V6.6ZM18.0785 15.144C16.2545 15.144 14.8985 13.824 14.8985 11.904C14.8985 9.996 16.2545 8.676 18.0785 8.676C19.9265 8.676 21.2825 9.996 21.2825 11.904C21.2825 13.824 19.9265 15.144 18.0785 15.144ZM18.0785 13.776C19.0025 13.776 19.6985 13.092 19.6985 11.904C19.6985 10.728 19.0025 10.056 18.0785 10.056C17.1665 10.056 16.4825 10.728 16.4825 11.904C16.4825 13.092 17.1665 13.776 18.0785 13.776ZM25.3252 8.676H25.6492V10.332H25.0012C24.2812 10.332 23.7652 10.848 23.7652 11.76V15H22.2172V8.82H23.7652V9.708C24.1132 8.988 24.6652 8.676 25.3252 8.676ZM30.9704 15.144C29.6504 15.144 28.4744 14.508 28.1384 13.092L29.3864 12.684C29.5664 13.5 30.1904 13.896 30.9704 13.896C31.6664 13.896 32.0984 13.668 32.0984 13.296C32.0984 12.936 31.7624 12.78 31.0064 12.588L30.3944 12.444C28.9664 12.096 28.3664 11.496 28.3664 10.524C28.3664 9.42 29.3384 8.676 30.8384 8.676C32.2784 8.676 33.3464 9.432 33.5144 10.668L32.2304 11.004C32.0984 10.248 31.5344 9.936 30.8384 9.936C30.2264 9.936 29.8304 10.176 29.8304 10.488C29.8304 10.884 30.2864 11.016 31.0184 11.196L31.6184 11.352C32.9264 11.664 33.5744 12.288 33.5744 13.224C33.5744 14.364 32.5424 15.144 30.9704 15.144ZM37.1019 8.676C38.5899 8.676 39.8739 9.444 39.8739 11.112V15H38.4339V14.4C38.0499 14.892 37.4259 15.144 36.6099 15.144C35.1699 15.144 34.2219 14.424 34.2219 13.212C34.2219 12.048 35.2059 11.292 36.7179 11.292C37.4259 11.292 37.9659 11.484 38.3259 11.832V11.268C38.3259 10.44 37.8459 10.056 37.0419 10.056C36.3579 10.056 35.8899 10.416 35.6619 11.04L34.3779 10.5C34.7979 9.192 35.8779 8.676 37.1019 8.676ZM37.0899 14.016C37.8459 14.016 38.3619 13.728 38.3619 13.2C38.3619 12.672 37.8459 12.372 37.0899 12.372C36.3339 12.372 35.8179 12.672 35.8179 13.2C35.8179 13.728 36.3339 14.016 37.0899 14.016ZM43.1021 13.668H43.5581V15H42.8021C41.6621 15 41.0141 14.304 41.0141 13.176V6.6H42.5621V13.08C42.5621 13.464 42.7301 13.668 43.1021 13.668ZM46.997 13.824C47.729 13.824 48.257 13.488 48.581 12.648L49.889 13.128C49.409 14.52 48.317 15.144 47.057 15.144C45.233 15.144 43.961 13.848 43.961 11.904C43.961 9.984 45.209 8.676 46.985 8.676C48.701 8.676 49.901 9.972 49.901 11.892C49.901 12 49.901 12.144 49.889 12.252H45.533C45.629 13.332 46.205 13.824 46.997 13.824ZM46.985 9.924C46.229 9.924 45.749 10.344 45.581 11.196H48.329C48.161 10.32 47.657 9.924 46.985 9.924Z" fill="white"/>
<path d="M4 24V20L0 20L4 24Z" fill="#CC0026"/>
</svg>
