<svg width="20" height="20" viewBox="0 0 20 20" fill="none" xmlns="http://www.w3.org/2000/svg">
<g id="clarity:house-solid">
<path id="Vector" d="M18.3337 10.5555C18.2606 10.556 18.1881 10.5419 18.1204 10.5143C18.0527 10.4867 17.9911 10.4459 17.9392 10.3944L10.0003 2.44998L2.06145 10.3944C1.95517 10.4854 1.81846 10.533 1.67864 10.5276C1.53882 10.5222 1.40619 10.4642 1.30725 10.3653C1.20831 10.2664 1.15035 10.1337 1.14495 9.9939C1.13954 9.85408 1.1871 9.71737 1.27812 9.6111L9.61145 1.27776C9.71554 1.17429 9.85635 1.11621 10.0031 1.11621C10.1499 1.11621 10.2907 1.17429 10.3948 1.27776L18.7281 9.6111C18.8046 9.68909 18.8563 9.78788 18.8769 9.89513C18.8976 10.0024 18.8861 10.1133 18.844 10.2141C18.8019 10.3149 18.7311 10.401 18.6403 10.4617C18.5495 10.5225 18.4429 10.5551 18.3337 10.5555Z" fill="#C1C1C1"/>
<path id="Vector_2" d="M9.99967 4.32782L3.33301 11.0167V17.7778C3.33301 18.0725 3.45007 18.3551 3.65844 18.5635C3.86682 18.7719 4.14943 18.8889 4.44412 18.8889H8.33301V13.3334H11.6663V18.8889H15.5552C15.8499 18.8889 16.1325 18.7719 16.3409 18.5635C16.5493 18.3551 16.6663 18.0725 16.6663 17.7778V10.9778L9.99967 4.32782Z" fill="#C1C1C1"/>
</g>
</svg>
