<svg width="18" height="18" viewBox="0 0 18 18" fill="none" xmlns="http://www.w3.org/2000/svg">
<g id="Icon" clip-path="url(#clip0_488_732)">
<path id="Vector" d="M17.9824 5.29205C17.9402 4.33564 17.7856 3.67812 17.564 3.10836C17.3354 2.50359 16.9838 1.96213 16.5231 1.51201C16.073 1.05489 15.528 0.699691 14.9302 0.474702C14.3572 0.253147 13.7031 0.0984842 12.7467 0.0563159C11.7831 0.0105764 11.4772 0 9.03337 0C6.58954 0 6.28365 0.0105764 5.32367 0.0527447C4.36726 0.0949129 3.70973 0.249713 3.14012 0.471131C2.5352 0.699691 1.99375 1.05132 1.54363 1.51201C1.08651 1.96213 0.731445 2.50716 0.506318 3.10493C0.284763 3.67812 0.1301 4.33207 0.0879321 5.28848C0.0421926 6.25203 0.0316162 6.55792 0.0316162 9.00176C0.0316162 11.4456 0.0421926 11.7515 0.0843609 12.7115C0.126529 13.6679 0.281329 14.3254 0.502884 14.8952C0.731445 15.4999 1.08651 16.0414 1.54363 16.4915C1.99375 16.9486 2.53877 17.3038 3.13655 17.5288C3.70973 17.7504 4.36369 17.905 5.32023 17.9472C6.28008 17.9895 6.5861 17.9999 9.02994 17.9999C11.4738 17.9999 11.7797 17.9895 12.7396 17.9472C13.6961 17.905 14.3536 17.7504 14.9232 17.5288C16.1329 17.0611 17.0893 16.1047 17.557 14.8952C17.7784 14.322 17.9332 13.6679 17.9754 12.7115C18.0176 11.7515 18.0281 11.4456 18.0281 9.00176C18.0281 6.55792 18.0246 6.25203 17.9824 5.29205ZM16.3615 12.6411C16.3227 13.5202 16.1751 13.9949 16.052 14.3114C15.7495 15.0956 15.1272 15.7179 14.343 16.0204C14.0265 16.1434 13.5484 16.2911 12.6728 16.3297C11.7234 16.372 11.4386 16.3824 9.03695 16.3824C6.63528 16.3824 6.34697 16.372 5.401 16.3297C4.52192 16.2911 4.04722 16.1434 3.73075 16.0204C3.34052 15.8761 2.98532 15.6476 2.69701 15.3487C2.39812 15.0568 2.16956 14.7052 2.02534 14.315C1.90227 13.9985 1.75461 13.5202 1.71601 12.6447C1.67371 11.6953 1.66327 11.4104 1.66327 9.00876C1.66327 6.60709 1.67371 6.31878 1.71601 5.37295C1.75461 4.49387 1.90227 4.01917 2.02534 3.7027C2.16956 3.31234 2.39812 2.95727 2.70058 2.66883C2.99232 2.36994 3.34395 2.14138 3.73432 1.99729C4.05079 1.87422 4.52906 1.72656 5.40457 1.68783C6.35397 1.64566 6.63885 1.63508 9.04038 1.63508C11.4456 1.63508 11.7304 1.64566 12.6763 1.68783C13.5554 1.72656 14.0301 1.87422 14.3466 1.99729C14.7368 2.14138 15.092 2.36994 15.3803 2.66883C15.6792 2.96071 15.9078 3.31234 16.052 3.7027C16.1751 4.01917 16.3227 4.49731 16.3615 5.37295C16.4036 6.32236 16.4142 6.60709 16.4142 9.00876C16.4142 11.4104 16.4036 11.6917 16.3615 12.6411Z" fill="#F1FAEE"/>
<path id="Vector_2" d="M9.03337 4.37793C6.48061 4.37793 4.40942 6.44898 4.40942 9.00188C4.40942 11.5548 6.48061 13.6258 9.03337 13.6258C11.5863 13.6258 13.6573 11.5548 13.6573 9.00188C13.6573 6.44898 11.5863 4.37793 9.03337 4.37793ZM9.03337 12.0013C7.37727 12.0013 6.03393 10.6581 6.03393 9.00188C6.03393 7.34564 7.37727 6.00244 9.03337 6.00244C10.6896 6.00244 12.0328 7.34564 12.0328 9.00188C12.0328 10.6581 10.6896 12.0013 9.03337 12.0013Z" fill="#F1FAEE"/>
<path id="Vector_3" d="M14.9198 4.1952C14.9198 4.79133 14.4364 5.27468 13.8402 5.27468C13.244 5.27468 12.7607 4.79133 12.7607 4.1952C12.7607 3.59894 13.244 3.11572 13.8402 3.11572C14.4364 3.11572 14.9198 3.59894 14.9198 4.1952Z" fill="#F1FAEE"/>
</g>
<defs>
<clipPath id="clip0_488_732">
<rect width="18" height="18" fill="white"/>
</clipPath>
</defs>
</svg>
