<svg width="16" height="14" viewBox="0 0 16 14" fill="none" xmlns="http://www.w3.org/2000/svg">
<g id="Group">
<path id="Vector" d="M15.2021 12.8097H4.50295C4.06199 12.8097 3.70459 12.4523 3.70459 12.0114C3.70459 11.5704 4.06199 11.213 4.50295 11.213H15.2018C15.6428 11.213 16.0002 11.5704 16.0002 12.0114C16.0002 12.4523 15.6431 12.8097 15.2021 12.8097Z" fill="#8E8E93"/>
<path id="Vector_2" d="M15.2021 7.79826H4.50295C4.06199 7.79826 3.70459 7.44086 3.70459 6.9999C3.70459 6.55894 4.06199 6.20154 4.50295 6.20154H15.2018C15.6428 6.20154 16.0002 6.55894 16.0002 6.9999C16.0005 7.44086 15.6431 7.79826 15.2021 7.79826Z" fill="#8E8E93"/>
<path id="Vector_3" d="M15.2021 2.78728H4.50295C4.06199 2.78728 3.70459 2.42988 3.70459 1.98892C3.70459 1.54795 4.06199 1.19055 4.50295 1.19055H15.2018C15.6428 1.19055 16.0002 1.54795 16.0002 1.98892C16.0002 2.42988 15.6431 2.78728 15.2021 2.78728Z" fill="#8E8E93"/>
<path id="Vector_4" d="M1.0722 3.12268C1.66436 3.12268 2.1444 2.64263 2.1444 2.05047C2.1444 1.45831 1.66436 0.978271 1.0722 0.978271C0.480041 0.978271 0 1.45831 0 2.05047C0 2.64263 0.480041 3.12268 1.0722 3.12268Z" fill="#8E8E93"/>
<path id="Vector_5" d="M1.0722 8.07226C1.66436 8.07226 2.1444 7.59222 2.1444 7.00006C2.1444 6.4079 1.66436 5.92786 1.0722 5.92786C0.480041 5.92786 0 6.4079 0 7.00006C0 7.59222 0.480041 8.07226 1.0722 8.07226Z" fill="#8E8E93"/>
<path id="Vector_6" d="M1.0722 13.0217C1.66436 13.0217 2.1444 12.5417 2.1444 11.9495C2.1444 11.3574 1.66436 10.8773 1.0722 10.8773C0.480041 10.8773 0 11.3574 0 11.9495C0 12.5417 0.480041 13.0217 1.0722 13.0217Z" fill="#8E8E93"/>
</g>
</svg>
