<svg width="208" height="32" viewBox="0 0 208 32" fill="none" xmlns="http://www.w3.org/2000/svg">
<rect width="208" height="32" fill="#F5F5F5"/>
<g id="Home" clip-path="url(#clip0_0_1)">
<rect width="1440" height="7434" transform="translate(-80 -6817)" fill="white"/>
<g id="Component 1">
<rect id="Rectangle 130" x="-80" y="-24" width="1440" height="80" fill="#289ADE"/>
<g id="Group 4">
<g id="Bababura">
<path d="M0 31.3316V1.77349H14.4412C18.1571 1.77349 20.944 2.47725 22.802 3.88478C24.6881 5.29231 25.6311 7.15025 25.6311 9.4586C25.6311 11.0069 25.2511 12.3581 24.491 13.5123C23.7309 14.6383 22.6894 15.511 21.3663 16.1303C20.0432 16.7496 18.5231 17.0592 16.8059 17.0592L17.6082 15.328C19.4661 15.328 21.1129 15.6376 22.5486 16.257C23.9843 16.8481 25.0962 17.7349 25.8845 18.9172C26.7008 20.0995 27.109 21.5493 27.109 23.2665C27.109 25.8 26.1097 27.7846 24.111 29.2203C22.1123 30.6278 19.1705 31.3316 15.2858 31.3316H0ZM6.79837 26.18H14.7791C16.5525 26.18 17.8897 25.8985 18.7905 25.3355C19.7195 24.7444 20.184 23.8154 20.184 22.5486C20.184 21.31 19.7195 20.3951 18.7905 19.8039C17.8897 19.1846 16.5525 18.875 14.7791 18.875H6.29165V13.8923H13.5967C15.2576 13.8923 16.5244 13.6108 17.3971 13.0478C18.2979 12.4566 18.7483 11.5699 18.7483 10.3876C18.7483 9.23339 18.2979 8.3748 17.3971 7.81179C16.5244 7.22062 15.2576 6.92504 13.5967 6.92504H6.79837V26.18Z" fill="white"/>
<path d="M45.758 31.3316V26.8979L45.3357 25.9267V17.9882C45.3357 16.5807 44.8994 15.4828 44.0267 14.6946C43.1822 13.9064 41.8732 13.5123 40.0997 13.5123C38.8893 13.5123 37.6929 13.7093 36.5105 14.1034C35.3564 14.4694 34.3711 14.9761 33.5547 15.6236L31.1901 11.021C32.4287 10.1483 33.9207 9.47267 35.666 8.99411C37.4113 8.51555 39.1848 8.27627 40.9865 8.27627C44.449 8.27627 47.1374 9.09264 49.0516 10.7254C50.9659 12.3581 51.923 14.9057 51.923 18.3683V31.3316H45.758ZM38.833 31.6694C37.0595 31.6694 35.5393 31.3738 34.2726 30.7827C33.0058 30.1633 32.0346 29.3329 31.359 28.2913C30.6834 27.2498 30.3456 26.0815 30.3456 24.7866C30.3456 23.4354 30.6693 22.253 31.3167 21.2396C31.9924 20.2262 33.048 19.438 34.4837 18.875C35.9194 18.2838 37.7914 17.9882 40.0997 17.9882H46.138V21.8308H40.8176C39.2693 21.8308 38.1996 22.0841 37.6084 22.5908C37.0454 23.0975 36.7639 23.7309 36.7639 24.491C36.7639 25.3355 37.0876 26.0111 37.7351 26.5178C38.4107 26.9964 39.3256 27.2357 40.4798 27.2357C41.5776 27.2357 42.5629 26.9823 43.4356 26.4756C44.3082 25.9408 44.9416 25.1666 45.3357 24.1532L46.3492 27.1935C45.8706 28.6573 44.9979 29.7692 43.7312 30.5293C42.4644 31.2894 40.8316 31.6694 38.833 31.6694Z" fill="white"/>
<path d="M71.3126 31.6694C69.3139 31.6694 67.5967 31.2471 66.161 30.4026C64.7253 29.5581 63.6275 28.2773 62.8674 26.5601C62.1073 24.8147 61.7273 22.619 61.7273 19.9728C61.7273 17.2985 62.1214 15.1028 62.9096 13.3856C63.726 11.6684 64.852 10.3876 66.2877 9.54305C67.7234 8.69853 69.3983 8.27627 71.3126 8.27627C73.452 8.27627 75.3662 8.75483 77.0553 9.71195C78.7725 10.6691 80.1237 12.0203 81.109 13.7656C82.1224 15.511 82.6291 17.58 82.6291 19.9728C82.6291 22.3375 82.1224 24.3925 81.109 26.1378C80.1237 27.8831 78.7725 29.2485 77.0553 30.2337C75.3662 31.1908 73.452 31.6694 71.3126 31.6694ZM57.8847 31.3316V0H64.472V13.2167L64.0497 19.9306L64.1764 26.6867V31.3316H57.8847ZM70.1725 26.2645C71.2703 26.2645 72.2415 26.0111 73.086 25.5044C73.9587 24.9977 74.6484 24.2799 75.1551 23.3509C75.69 22.3938 75.9574 21.2678 75.9574 19.9728C75.9574 18.6498 75.69 17.5237 75.1551 16.5948C74.6484 15.6658 73.9587 14.948 73.086 14.4412C72.2415 13.9345 71.2703 13.6812 70.1725 13.6812C69.0746 13.6812 68.0893 13.9345 67.2167 14.4412C66.344 14.948 65.6543 15.6658 65.1476 16.5948C64.6409 17.5237 64.3875 18.6498 64.3875 19.9728C64.3875 21.2678 64.6409 22.3938 65.1476 23.3509C65.6543 24.2799 66.344 24.9977 67.2167 25.5044C68.0893 26.0111 69.0746 26.2645 70.1725 26.2645Z" fill="white"/>
<path d="M100.602 31.3316V26.8979L100.18 25.9267V17.9882C100.18 16.5807 99.7435 15.4828 98.8709 14.6946C98.0264 13.9064 96.7174 13.5123 94.9439 13.5123C93.7334 13.5123 92.537 13.7093 91.3547 14.1034C90.2005 14.4694 89.2152 14.9761 88.3989 15.6236L86.0342 11.021C87.2728 10.1483 88.7648 9.47267 90.5102 8.99411C92.2555 8.51555 94.029 8.27627 95.8306 8.27627C99.2931 8.27627 101.982 9.09264 103.896 10.7254C105.81 12.3581 106.767 14.9057 106.767 18.3683V31.3316H100.602ZM93.6771 31.6694C91.9036 31.6694 90.3835 31.3738 89.1167 30.7827C87.8499 30.1633 86.8787 29.3329 86.2031 28.2913C85.5275 27.2498 85.1897 26.0815 85.1897 24.7866C85.1897 23.4354 85.5134 22.253 86.1609 21.2396C86.8365 20.2262 87.8922 19.438 89.3278 18.875C90.7635 18.2838 92.6355 17.9882 94.9439 17.9882H100.982V21.8308H95.6617C94.1134 21.8308 93.0437 22.0841 92.4525 22.5908C91.8895 23.0975 91.608 23.7309 91.608 24.491C91.608 25.3355 91.9318 26.0111 92.5792 26.5178C93.2548 26.9964 94.1697 27.2357 95.3239 27.2357C96.4218 27.2357 97.4071 26.9823 98.2797 26.4756C99.1524 25.9408 99.7858 25.1666 100.18 24.1532L101.193 27.1935C100.715 28.6573 99.8421 29.7692 98.5753 30.5293C97.3085 31.2894 95.6758 31.6694 93.6771 31.6694Z" fill="white"/>
<path d="M126.157 31.6694C124.158 31.6694 122.441 31.2471 121.005 30.4026C119.569 29.5581 118.472 28.2773 117.712 26.5601C116.951 24.8147 116.571 22.619 116.571 19.9728C116.571 17.2985 116.966 15.1028 117.754 13.3856C118.57 11.6684 119.696 10.3876 121.132 9.54305C122.568 8.69853 124.242 8.27627 126.157 8.27627C128.296 8.27627 130.21 8.75483 131.899 9.71195C133.617 10.6691 134.968 12.0203 135.953 13.7656C136.967 15.511 137.473 17.58 137.473 19.9728C137.473 22.3375 136.967 24.3925 135.953 26.1378C134.968 27.8831 133.617 29.2485 131.899 30.2337C130.21 31.1908 128.296 31.6694 126.157 31.6694ZM112.729 31.3316V0H119.316V13.2167L118.894 19.9306L119.021 26.6867V31.3316H112.729ZM125.017 26.2645C126.114 26.2645 127.086 26.0111 127.93 25.5044C128.803 24.9977 129.493 24.2799 129.999 23.3509C130.534 22.3938 130.802 21.2678 130.802 19.9728C130.802 18.6498 130.534 17.5237 129.999 16.5948C129.493 15.6658 128.803 14.948 127.93 14.4412C127.086 13.9345 126.114 13.6812 125.017 13.6812C123.919 13.6812 122.933 13.9345 122.061 14.4412C121.188 14.948 120.498 15.6658 119.992 16.5948C119.485 17.5237 119.232 18.6498 119.232 19.9728C119.232 21.2678 119.485 22.3938 119.992 23.3509C120.498 24.2799 121.188 24.9977 122.061 25.5044C122.933 26.0111 123.919 26.2645 125.017 26.2645Z" fill="white"/>
<path d="M151.468 31.6694C149.582 31.6694 147.893 31.3034 146.401 30.5715C144.937 29.8396 143.797 28.7277 142.981 27.2357C142.164 25.7156 141.756 23.7872 141.756 21.4507V8.61408H148.343V20.4795C148.343 22.3656 148.738 23.7591 149.526 24.6599C150.342 25.5326 151.482 25.9689 152.946 25.9689C153.959 25.9689 154.86 25.7578 155.648 25.3355C156.437 24.8851 157.056 24.2095 157.506 23.3087C157.957 22.3797 158.182 21.2255 158.182 19.8462V8.61408H164.769V31.3316H158.52V25.0822L159.66 26.8979C158.9 28.4743 157.774 29.6707 156.282 30.4871C154.818 31.2753 153.213 31.6694 151.468 31.6694Z" fill="white"/>
<path d="M170.872 31.3316V8.61408H177.164V15.0324L176.277 13.1745C176.952 11.5699 178.036 10.3594 179.528 9.54305C181.02 8.69853 182.836 8.27627 184.975 8.27627V14.3568C184.694 14.3286 184.441 14.3146 184.215 14.3146C183.99 14.2864 183.751 14.2723 183.497 14.2723C181.696 14.2723 180.232 14.7931 179.106 15.8347C178.008 16.8481 177.459 18.4386 177.459 20.6062V31.3316H170.872Z" fill="white"/>
<path d="M201.342 31.3316V26.8979L200.92 25.9267V17.9882C200.92 16.5807 200.484 15.4828 199.611 14.6946C198.766 13.9064 197.457 13.5123 195.684 13.5123C194.473 13.5123 193.277 13.7093 192.095 14.1034C190.941 14.4694 189.955 14.9761 189.139 15.6236L186.774 11.021C188.013 10.1483 189.505 9.47267 191.25 8.99411C192.996 8.51555 194.769 8.27627 196.571 8.27627C200.033 8.27627 202.722 9.09264 204.636 10.7254C206.55 12.3581 207.507 14.9057 207.507 18.3683V31.3316H201.342ZM194.417 31.6694C192.644 31.6694 191.124 31.3738 189.857 30.7827C188.59 30.1633 187.619 29.3329 186.943 28.2913C186.268 27.2498 185.93 26.0815 185.93 24.7866C185.93 23.4354 186.253 22.253 186.901 21.2396C187.577 20.2262 188.632 19.438 190.068 18.875C191.504 18.2838 193.376 17.9882 195.684 17.9882H201.722V21.8308H196.402C194.853 21.8308 193.784 22.0841 193.193 22.5908C192.63 23.0975 192.348 23.7309 192.348 24.491C192.348 25.3355 192.672 26.0111 193.319 26.5178C193.995 26.9964 194.91 27.2357 196.064 27.2357C197.162 27.2357 198.147 26.9823 199.02 26.4756C199.892 25.9408 200.526 25.1666 200.92 24.1532L201.933 27.1935C201.455 28.6573 200.582 29.7692 199.315 30.5293C198.049 31.2894 196.416 31.6694 194.417 31.6694Z" fill="white"/>
</g>
</g>
</g>
</g>
<defs>
<clipPath id="clip0_0_1">
<rect width="1440" height="7434" fill="white" transform="translate(-80 -6817)"/>
</clipPath>
</defs>
</svg>
