<svg width="148" height="35" viewBox="0 0 148 35" fill="none" xmlns="http://www.w3.org/2000/svg">
<g id="Group 5">
<g id="Bababura">
<path d="M29.6382 34.0312V17.1713H37.8754C39.995 17.1713 41.5846 17.5727 42.6444 18.3755C43.7202 19.1784 44.2581 20.2382 44.2581 21.5548C44.2581 22.438 44.0414 23.2087 43.6078 23.867C43.1743 24.5093 42.5802 25.0071 41.8255 25.3604C41.0708 25.7136 40.2037 25.8902 39.2242 25.8902L39.6819 24.9027C40.7416 24.9027 41.681 25.0794 42.4999 25.4326C43.3188 25.7698 43.953 26.2756 44.4026 26.95C44.8683 27.6244 45.1011 28.4513 45.1011 29.4308C45.1011 30.8759 44.5311 32.008 43.391 32.8269C42.251 33.6297 40.573 34.0312 38.3572 34.0312H29.6382ZM33.516 31.0927H38.0681C39.0797 31.0927 39.8424 30.9321 40.3563 30.611C40.8861 30.2738 41.1511 29.7439 41.1511 29.0214C41.1511 28.3148 40.8861 27.793 40.3563 27.4558C39.8424 27.1025 39.0797 26.9259 38.0681 26.9259H33.2269V24.0838H37.3937C38.3411 24.0838 39.0637 23.9232 39.5614 23.6021C40.0753 23.2649 40.3322 22.7591 40.3322 22.0847C40.3322 21.4264 40.0753 20.9366 39.5614 20.6155C39.0637 20.2783 38.3411 20.1097 37.3937 20.1097H33.516V31.0927Z" fill="white"/>
<path d="M55.7385 34.0312V31.5022L55.4976 30.9482V26.4201C55.4976 25.6173 55.2487 24.991 54.751 24.5414C54.2692 24.0918 53.5226 23.867 52.511 23.867C51.8205 23.867 51.1381 23.9794 50.4637 24.2042C49.8054 24.413 49.2434 24.702 48.7777 25.0713L47.4289 22.446C48.1355 21.9482 48.9865 21.5629 49.982 21.2899C50.9776 21.0169 51.9891 20.8804 53.0168 20.8804C54.9918 20.8804 56.5253 21.3461 57.6171 22.2774C58.709 23.2087 59.255 24.6619 59.255 26.6369V34.0312H55.7385ZM51.7884 34.2238C50.7768 34.2238 49.9098 34.0552 49.1872 33.718C48.4646 33.3648 47.9107 32.8911 47.5253 32.297C47.1399 31.7029 46.9472 31.0365 46.9472 30.2979C46.9472 29.5272 47.1319 28.8528 47.5012 28.2747C47.8866 27.6967 48.4887 27.2471 49.3076 26.9259C50.1265 26.5887 51.1943 26.4201 52.511 26.4201H55.9552V28.6119H52.9205C52.0373 28.6119 51.4272 28.7564 51.09 29.0454C50.7688 29.3345 50.6082 29.6958 50.6082 30.1293C50.6082 30.611 50.7929 30.9964 51.1622 31.2854C51.5476 31.5584 52.0694 31.6949 52.7278 31.6949C53.354 31.6949 53.916 31.5503 54.4138 31.2613C54.9115 30.9562 55.2728 30.5147 55.4976 29.9366L56.0757 31.6708C55.8027 32.5057 55.3049 33.14 54.5824 33.5735C53.8598 34.0071 52.9285 34.2238 51.7884 34.2238Z" fill="white"/>
<path d="M70.3147 34.2238C69.1747 34.2238 68.1952 33.983 67.3763 33.5013C66.5574 33.0196 65.9312 32.289 65.4976 31.3095C65.0641 30.314 64.8473 29.0615 64.8473 27.5521C64.8473 26.0267 65.0721 24.7743 65.5217 23.7948C65.9874 22.8153 66.6297 22.0847 67.4486 21.603C68.2675 21.1213 69.2229 20.8804 70.3147 20.8804C71.5351 20.8804 72.627 21.1534 73.5904 21.6993C74.5699 22.2453 75.3406 23.016 75.9026 24.0116C76.4807 25.0071 76.7697 26.1873 76.7697 27.5521C76.7697 28.9009 76.4807 30.0731 75.9026 31.0686C75.3406 32.0642 74.5699 32.8429 73.5904 33.4049C72.627 33.9509 71.5351 34.2238 70.3147 34.2238ZM62.6555 34.0312V16.1597H66.4129V23.6985L66.172 27.5281L66.2443 31.3817V34.0312H62.6555ZM69.6644 31.1409C70.2907 31.1409 70.8446 30.9964 71.3263 30.7073C71.8241 30.4183 72.2175 30.0089 72.5065 29.479C72.8116 28.933 72.9642 28.2908 72.9642 27.5521C72.9642 26.7975 72.8116 26.1552 72.5065 25.6253C72.2175 25.0954 71.8241 24.686 71.3263 24.3969C70.8446 24.1079 70.2907 23.9634 69.6644 23.9634C69.0382 23.9634 68.4762 24.1079 67.9784 24.3969C67.4807 24.686 67.0873 25.0954 66.7983 25.6253C66.5092 26.1552 66.3647 26.7975 66.3647 27.5521C66.3647 28.2908 66.5092 28.933 66.7983 29.479C67.0873 30.0089 67.4807 30.4183 67.9784 30.7073C68.4762 30.9964 69.0382 31.1409 69.6644 31.1409Z" fill="white"/>
<path d="M87.0215 34.0312V31.5022L86.7806 30.9482V26.4201C86.7806 25.6173 86.5317 24.991 86.034 24.5414C85.5523 24.0918 84.8056 23.867 83.794 23.867C83.1036 23.867 82.4211 23.9794 81.7467 24.2042C81.0884 24.413 80.5264 24.702 80.0607 25.0713L78.712 22.446C79.4185 21.9482 80.2695 21.5629 81.265 21.2899C82.2606 21.0169 83.2722 20.8804 84.2998 20.8804C86.2748 20.8804 87.8083 21.3461 88.9001 22.2774C89.992 23.2087 90.538 24.6619 90.538 26.6369V34.0312H87.0215ZM83.0714 34.2238C82.0598 34.2238 81.1928 34.0552 80.4702 33.718C79.7476 33.3648 79.1937 32.8911 78.8083 32.297C78.4229 31.7029 78.2302 31.0365 78.2302 30.2979C78.2302 29.5272 78.4149 28.8528 78.7842 28.2747C79.1696 27.6967 79.7717 27.2471 80.5906 26.9259C81.4095 26.5887 82.4773 26.4201 83.794 26.4201H87.2382V28.6119H84.2035C83.3203 28.6119 82.7102 28.7564 82.373 29.0454C82.0518 29.3345 81.8913 29.6958 81.8913 30.1293C81.8913 30.611 82.0759 30.9964 82.4452 31.2854C82.8306 31.5584 83.3524 31.6949 84.0108 31.6949C84.637 31.6949 85.199 31.5503 85.6968 31.2613C86.1945 30.9562 86.5558 30.5147 86.7806 29.9366L87.3587 31.6708C87.0857 32.5057 86.5879 33.14 85.8654 33.5735C85.1428 34.0071 84.2115 34.2238 83.0714 34.2238Z" fill="white"/>
<path d="M101.598 34.2238C100.458 34.2238 99.4782 33.983 98.6593 33.5013C97.8404 33.0196 97.2142 32.289 96.7806 31.3095C96.3471 30.314 96.1303 29.0615 96.1303 27.5521C96.1303 26.0267 96.3551 24.7743 96.8047 23.7948C97.2704 22.8153 97.9127 22.0847 98.7316 21.603C99.5505 21.1213 100.506 20.8804 101.598 20.8804C102.818 20.8804 103.91 21.1534 104.873 21.6993C105.853 22.2453 106.624 23.016 107.186 24.0116C107.764 25.0071 108.053 26.1873 108.053 27.5521C108.053 28.9009 107.764 30.0731 107.186 31.0686C106.624 32.0642 105.853 32.8429 104.873 33.4049C103.91 33.9509 102.818 34.2238 101.598 34.2238ZM93.9385 34.0312V16.1597H97.6959V23.6985L97.455 27.5281L97.5273 31.3817V34.0312H93.9385ZM100.947 31.1409C101.574 31.1409 102.128 30.9964 102.609 30.7073C103.107 30.4183 103.501 30.0089 103.79 29.479C104.095 28.933 104.247 28.2908 104.247 27.5521C104.247 26.7975 104.095 26.1552 103.79 25.6253C103.501 25.0954 103.107 24.686 102.609 24.3969C102.128 24.1079 101.574 23.9634 100.947 23.9634C100.321 23.9634 99.7592 24.1079 99.2615 24.3969C98.7637 24.686 98.3703 25.0954 98.0813 25.6253C97.7922 26.1552 97.6477 26.7975 97.6477 27.5521C97.6477 28.2908 97.7922 28.933 98.0813 29.479C98.3703 30.0089 98.7637 30.4183 99.2615 30.7073C99.7592 30.9964 100.321 31.1409 100.947 31.1409Z" fill="white"/>
<path d="M116.035 34.2238C114.96 34.2238 113.996 34.0151 113.145 33.5976C112.31 33.1801 111.66 32.5459 111.194 31.6949C110.729 30.8278 110.496 29.7279 110.496 28.3951V21.0731H114.253V27.8412C114.253 28.917 114.478 29.7118 114.927 30.2256C115.393 30.7234 116.043 30.9723 116.878 30.9723C117.456 30.9723 117.97 30.8519 118.42 30.611C118.869 30.3541 119.223 29.9687 119.48 29.4549C119.737 28.925 119.865 28.2667 119.865 27.4799V21.0731H123.622V34.0312H120.058V30.4665L120.708 31.5022C120.274 32.4014 119.632 33.0838 118.781 33.5494C117.946 33.999 117.031 34.2238 116.035 34.2238Z" fill="white"/>
<path d="M127.103 34.0312V21.0731H130.692V24.7341L130.186 23.6744C130.572 22.7591 131.19 22.0687 132.041 21.603C132.892 21.1213 133.927 20.8804 135.148 20.8804V24.3488C134.987 24.3327 134.843 24.3247 134.714 24.3247C134.586 24.3086 134.449 24.3006 134.305 24.3006C133.277 24.3006 132.442 24.5976 131.8 25.1918C131.174 25.7698 130.861 26.677 130.861 27.9134V34.0312H127.103Z" fill="white"/>
<path d="M144.483 34.0312V31.5022L144.243 30.9482V26.4201C144.243 25.6173 143.994 24.991 143.496 24.5414C143.014 24.0918 142.268 23.867 141.256 23.867C140.566 23.867 139.883 23.9794 139.209 24.2042C138.55 24.413 137.988 24.702 137.523 25.0713L136.174 22.446C136.88 21.9482 137.731 21.5629 138.727 21.2899C139.723 21.0169 140.734 20.8804 141.762 20.8804C143.737 20.8804 145.27 21.3461 146.362 22.2774C147.454 23.2087 148 24.6619 148 26.6369V34.0312H144.483ZM140.533 34.2238C139.522 34.2238 138.655 34.0552 137.932 33.718C137.21 33.3648 136.656 32.8911 136.27 32.297C135.885 31.7029 135.692 31.0365 135.692 30.2979C135.692 29.5272 135.877 28.8528 136.246 28.2747C136.632 27.6967 137.234 27.2471 138.053 26.9259C138.871 26.5887 139.939 26.4201 141.256 26.4201H144.7V28.6119H141.665C140.782 28.6119 140.172 28.7564 139.835 29.0454C139.514 29.3345 139.353 29.6958 139.353 30.1293C139.353 30.611 139.538 30.9964 139.907 31.2854C140.293 31.5584 140.814 31.6949 141.473 31.6949C142.099 31.6949 142.661 31.5503 143.159 31.2613C143.656 30.9562 144.018 30.5147 144.243 29.9366L144.821 31.6708C144.548 32.5057 144.05 33.14 143.327 33.5735C142.605 34.0071 141.673 34.2238 140.533 34.2238Z" fill="white"/>
</g>
<g id="Group 3">
<path id="Rectangle 11" d="M0 1.76504C0 0.790234 0.790234 0 1.76504 0H12.7083C13.6831 0 14.4733 0.790234 14.4733 1.76504V12.7083C14.4733 13.6831 13.6831 14.4733 12.7083 14.4733H1.76504C0.790234 14.4733 0 13.6831 0 12.7083V1.76504Z" fill="#F2F2F2"/>
<path id="Rectangle 13" d="M0 17.9314C0 16.9566 0.790234 16.1664 1.76504 16.1664H16.003C16.9778 16.1664 17.768 16.9566 17.768 17.9314V32.1694C17.768 33.1442 16.9778 33.9344 16.003 33.9344H1.76504C0.790234 33.9344 0 33.1442 0 32.1694V17.9314Z" fill="#289ADE"/>
<g id="Rectangle 12" filter="url(#filter0_d_818_1945)">
<rect x="6.70703" y="4.35376" width="1.17669" height="5.29511" fill="white"/>
</g>
<g id="Rectangle 14" filter="url(#filter1_d_818_1945)">
<rect x="5.88379" y="21.8146" width="1.17669" height="5.29511" fill="white"/>
</g>
<g id="Rectangle 15" filter="url(#filter2_d_818_1945)">
<rect x="10.8257" y="21.8146" width="1.17669" height="5.29511" fill="white"/>
</g>
</g>
</g>
<defs>
<filter id="filter0_d_818_1945" x="5.70703" y="2.35376" width="5.17676" height="9.29517" filterUnits="userSpaceOnUse" color-interpolation-filters="sRGB">
<feFlood flood-opacity="0" result="BackgroundImageFix"/>
<feColorMatrix in="SourceAlpha" type="matrix" values="0 0 0 0 0 0 0 0 0 0 0 0 0 0 0 0 0 0 127 0" result="hardAlpha"/>
<feOffset dx="1"/>
<feGaussianBlur stdDeviation="1"/>
<feComposite in2="hardAlpha" operator="out"/>
<feColorMatrix type="matrix" values="0 0 0 0 0 0 0 0 0 0 0 0 0 0 0 0 0 0 0.32 0"/>
<feBlend mode="normal" in2="BackgroundImageFix" result="effect1_dropShadow_818_1945"/>
<feBlend mode="normal" in="SourceGraphic" in2="effect1_dropShadow_818_1945" result="shape"/>
</filter>
<filter id="filter1_d_818_1945" x="4.88379" y="19.8146" width="5.17676" height="9.29517" filterUnits="userSpaceOnUse" color-interpolation-filters="sRGB">
<feFlood flood-opacity="0" result="BackgroundImageFix"/>
<feColorMatrix in="SourceAlpha" type="matrix" values="0 0 0 0 0 0 0 0 0 0 0 0 0 0 0 0 0 0 127 0" result="hardAlpha"/>
<feOffset dx="1"/>
<feGaussianBlur stdDeviation="1"/>
<feComposite in2="hardAlpha" operator="out"/>
<feColorMatrix type="matrix" values="0 0 0 0 0 0 0 0 0 0 0 0 0 0 0 0 0 0 0.46 0"/>
<feBlend mode="normal" in2="BackgroundImageFix" result="effect1_dropShadow_818_1945"/>
<feBlend mode="normal" in="SourceGraphic" in2="effect1_dropShadow_818_1945" result="shape"/>
</filter>
<filter id="filter2_d_818_1945" x="9.82568" y="19.8146" width="5.17676" height="9.29517" filterUnits="userSpaceOnUse" color-interpolation-filters="sRGB">
<feFlood flood-opacity="0" result="BackgroundImageFix"/>
<feColorMatrix in="SourceAlpha" type="matrix" values="0 0 0 0 0 0 0 0 0 0 0 0 0 0 0 0 0 0 127 0" result="hardAlpha"/>
<feOffset dx="1"/>
<feGaussianBlur stdDeviation="1"/>
<feComposite in2="hardAlpha" operator="out"/>
<feColorMatrix type="matrix" values="0 0 0 0 0 0 0 0 0 0 0 0 0 0 0 0 0 0 0.46 0"/>
<feBlend mode="normal" in2="BackgroundImageFix" result="effect1_dropShadow_818_1945"/>
<feBlend mode="normal" in="SourceGraphic" in2="effect1_dropShadow_818_1945" result="shape"/>
</filter>
</defs>
</svg>
