<svg width="15" height="15" viewBox="0 0 15 15" fill="none" xmlns="http://www.w3.org/2000/svg">
<g id="Frame">
<path id="Vector" d="M0.9375 5.41875V10.7812C0.9375 11.2785 1.13504 11.7554 1.48667 12.1071C1.83831 12.4587 2.31522 12.6562 2.8125 12.6562H12.1875C12.6848 12.6562 13.1617 12.4587 13.5133 12.1071C13.865 11.7554 14.0625 11.2785 14.0625 10.7812V5.41875L8.4825 8.85187C8.18703 9.03365 7.84691 9.1299 7.5 9.1299C7.15309 9.1299 6.81297 9.03365 6.5175 8.85187L0.9375 5.41875Z" fill="white"/>
<path id="Vector_2" d="M14.0625 4.3175V4.21875C14.0625 3.72147 13.865 3.24456 13.5133 2.89292C13.1617 2.54129 12.6848 2.34375 12.1875 2.34375H2.8125C2.31522 2.34375 1.83831 2.54129 1.48667 2.89292C1.13504 3.24456 0.9375 3.72147 0.9375 4.21875V4.3175L7.00875 8.05375C7.15649 8.14464 7.32654 8.19276 7.5 8.19276C7.67346 8.19276 7.84351 8.14464 7.99125 8.05375L14.0625 4.3175Z" fill="white"/>
</g>
</svg>
