<svg width="23" height="16" viewBox="0 0 23 16" fill="none" xmlns="http://www.w3.org/2000/svg">
<g id="iwwa:map">
<path id="Vector" d="M14.6582 7.78044C14.6222 7.78035 14.5867 7.77377 14.5531 7.761C13.9245 7.51442 12.5913 3.52466 12.5913 2.56685C12.5918 2.01884 12.8097 1.4934 13.1972 1.1059C13.5847 0.718394 14.1101 0.500482 14.6582 0.5C15.206 0.500643 15.7312 0.718646 16.1185 1.10615C16.5058 1.49366 16.7235 2.019 16.7238 2.56685C16.7238 3.52466 15.3919 7.51442 14.7632 7.761C14.7296 7.77341 14.694 7.77999 14.6582 7.78044ZM14.6582 1.07578C14.263 1.07626 13.8842 1.23345 13.6048 1.51286C13.3254 1.79227 13.1682 2.1711 13.1677 2.56624C13.1677 3.49794 14.1868 6.24503 14.6582 7.04675C15.1295 6.24564 16.1474 3.49794 16.1474 2.56624C16.1474 1.74448 15.4793 1.07578 14.6582 1.07578Z" fill="#289ADE"/>
<path id="Vector_2" d="M15.0518 15.5C14.9561 15.4994 14.8623 15.4736 14.7797 15.4253L7.7932 11.1671L0.813406 15.4211C0.703565 15.4849 0.575013 15.5086 0.449649 15.4882C0.324285 15.4678 0.209862 15.4046 0.125873 15.3093C0.0429406 15.211 -0.0017336 15.086 5.14996e-05 14.9574C0.00183659 14.8287 0.0499612 14.7051 0.135591 14.609C7.31217 5.58001 7.32067 5.57636 7.42939 5.5381L11.6141 3.84417C11.6755 3.81988 11.7433 3.81688 11.8066 3.83567L12.6387 4.09076C12.7906 4.13753 12.8762 4.29908 12.83 4.45092C12.8069 4.52357 12.7563 4.58428 12.689 4.62004C12.6217 4.6558 12.543 4.66377 12.4699 4.64224L11.7356 4.41691L7.69784 6.05011C7.21499 6.63378 2.64399 12.3788 0.702259 14.821L7.64379 10.5828C7.68892 10.5551 7.74085 10.5405 7.79381 10.5405C7.84677 10.5405 7.8987 10.5551 7.94383 10.5828L15.0524 14.9158C15.0588 14.9129 15.0652 14.9102 15.0718 14.9079L21.7103 11.0894L21.9757 4.20373L17.3057 6.05436C17.245 6.07865 17.1781 6.08108 17.115 6.06225L16.3376 5.82538C16.2664 5.80134 16.2075 5.75053 16.1732 5.68373C16.139 5.61693 16.1321 5.5394 16.1541 5.46762C16.1761 5.39584 16.2252 5.33545 16.2909 5.29928C16.3567 5.26311 16.434 5.254 16.5064 5.2739L17.1873 5.48222L21.8585 3.63099C22.0553 3.57632 22.2247 3.6152 22.3589 3.72331C22.4241 3.77578 22.4759 3.84305 22.5099 3.91952C22.5439 3.99599 22.5592 4.07947 22.5545 4.16304L22.2599 11.1519C22.2551 11.2383 22.23 11.3223 22.1866 11.3971C22.1432 11.4719 22.0828 11.5354 22.0103 11.5826L15.3251 15.4253C15.3055 15.4361 15.285 15.445 15.2637 15.4521C15.1974 15.4832 15.1251 15.4996 15.0518 15.5Z" fill="#289ADE"/>
<path id="Vector_3" d="M7.80712 11.099C7.75647 11.0989 7.70675 11.0854 7.66296 11.0599C7.61918 11.0344 7.58287 10.9979 7.55769 10.9539C7.53252 10.91 7.51935 10.8602 7.51953 10.8095C7.51971 10.7589 7.53322 10.7092 7.55871 10.6654L11.4385 4.02935C11.4576 3.99669 11.4829 3.9681 11.513 3.94522C11.5431 3.92234 11.5775 3.90562 11.614 3.896C11.6506 3.88638 11.6887 3.88407 11.7262 3.88918C11.7637 3.89429 11.7997 3.90673 11.8324 3.9258C11.8651 3.94486 11.8937 3.97017 11.9165 4.00028C11.9394 4.03039 11.9561 4.06471 11.9658 4.10129C11.9754 4.13786 11.9777 4.17597 11.9726 4.21344C11.9675 4.25091 11.955 4.28701 11.936 4.31967L8.05614 10.9557C8.03077 10.9993 7.99444 11.0354 7.95075 11.0606C7.90705 11.0857 7.85753 11.099 7.80712 11.099ZM15.1052 15.39C15.0622 15.39 15.0198 15.3803 14.981 15.3618C14.9422 15.3433 14.9081 15.3163 14.881 15.2829C14.854 15.2495 14.8347 15.2105 14.8246 15.1687C14.8145 15.127 14.8139 15.0835 14.8228 15.0414L16.8161 5.76944C16.833 5.69513 16.8783 5.63039 16.9423 5.58907C17.0063 5.54775 17.084 5.53313 17.1587 5.54836C17.2333 5.56467 17.2984 5.60985 17.3399 5.67403C17.3813 5.73822 17.3956 5.81619 17.3797 5.89091L15.3864 15.1629C15.3726 15.2272 15.3372 15.2849 15.286 15.3262C15.2348 15.3676 15.171 15.3901 15.1052 15.39Z" fill="#289ADE"/>
</g>
</svg>
