<svg width="10" height="11" viewBox="0 0 10 11" fill="none" xmlns="http://www.w3.org/2000/svg">
<g id="Frame">
<path id="Vector" fill-rule="evenodd" clip-rule="evenodd" d="M8.125 4.5625C8.125 4.64538 8.09208 4.72486 8.03347 4.78347C7.97487 4.84207 7.89538 4.875 7.8125 4.875H5.9375C5.85462 4.875 5.77513 4.84207 5.71653 4.78347C5.65792 4.72486 5.625 4.64538 5.625 4.5625V2.6875C5.625 2.60462 5.65792 2.52513 5.71653 2.46653C5.77513 2.40792 5.85462 2.375 5.9375 2.375C6.02038 2.375 6.09987 2.40792 6.15847 2.46653C6.21708 2.52513 6.25 2.60462 6.25 2.6875V3.80833L8.21667 1.84166C8.24528 1.81096 8.27978 1.78634 8.31811 1.76926C8.35644 1.75218 8.39782 1.74299 8.43978 1.74225C8.48174 1.74151 8.52342 1.74923 8.56233 1.76495C8.60124 1.78066 8.63659 1.80406 8.66627 1.83373C8.69594 1.86341 8.71933 1.89875 8.73505 1.93767C8.75077 1.97658 8.75849 2.01826 8.75775 2.06022C8.75701 2.10218 8.74782 2.14356 8.73074 2.18189C8.71366 2.22022 8.68904 2.25472 8.65833 2.28333L6.69167 4.25H7.8125C7.89538 4.25 7.97487 4.28292 8.03347 4.34153C8.09208 4.40013 8.125 4.47962 8.125 4.5625Z" fill="#C1C1C1"/>
<path id="Vector_2" fill-rule="evenodd" clip-rule="evenodd" d="M0.625 2.375C0.625 2.04348 0.756696 1.72554 0.991117 1.49112C1.22554 1.2567 1.54348 1.125 1.875 1.125H2.44667C2.805 1.125 3.1175 1.36917 3.20458 1.71667L3.665 3.55958C3.70231 3.70875 3.69477 3.86561 3.64334 4.01051C3.5919 4.15541 3.49884 4.28191 3.37583 4.37417L2.83708 4.77833C2.78083 4.82042 2.76875 4.88208 2.78458 4.925C3.01974 5.56452 3.39108 6.14529 3.87289 6.62711C4.35471 7.10892 4.93548 7.48026 5.575 7.71542C5.61792 7.73125 5.67917 7.71917 5.72167 7.66292L6.12583 7.12417C6.21809 7.00116 6.34459 6.9081 6.48949 6.85666C6.63439 6.80523 6.79125 6.79769 6.94042 6.835L8.78333 7.29542C9.13083 7.3825 9.375 7.695 9.375 8.05375V8.625C9.375 8.95652 9.2433 9.27446 9.00888 9.50888C8.77446 9.7433 8.45652 9.875 8.125 9.875H7.1875C3.56333 9.875 0.625 6.93667 0.625 3.3125V2.375Z" fill="#C1C1C1"/>
</g>
</svg>
