<svg width="19" height="18" viewBox="0 0 19 18" fill="none" xmlns="http://www.w3.org/2000/svg">
<g id="Icon">
<path id="Vector" d="M16.2501 15.75L12.3523 11.8522M12.3523 11.8522C13.4073 10.7973 13.9999 9.36652 13.9999 7.87462C13.9999 6.38273 13.4073 4.95193 12.3523 3.897C11.2974 2.84207 9.86662 2.24941 8.37472 2.24941C6.88282 2.24941 5.45203 2.84207 4.3971 3.897C3.34217 4.95193 2.74951 6.38273 2.74951 7.87462C2.74951 9.36652 3.34217 10.7973 4.3971 11.8522C5.45203 12.9072 6.88282 13.4998 8.37472 13.4998C9.86662 13.4998 11.2974 12.9072 12.3523 11.8522V11.8522Z" stroke="white" stroke-width="1.5" stroke-linecap="round" stroke-linejoin="round"/>
<path id="Ellipse 5" d="M11 8.5C11 8.8283 10.9353 9.15339 10.8097 9.45671C10.6841 9.76002 10.4999 10.0356 10.2678 10.2678C10.0356 10.4999 9.76002 10.6841 9.45671 10.8097C9.15339 10.9353 8.8283 11 8.5 11C8.1717 11 7.84661 10.9353 7.54329 10.8097C7.23998 10.6841 6.96438 10.4999 6.73223 10.2678C6.50009 10.0356 6.31594 9.76002 6.1903 9.45671C6.06466 9.15339 6 8.8283 6 8.5L8.5 8.5H11Z" fill="white"/>
</g>
</svg>
