<svg width="20" height="20" viewBox="0 0 20 20" fill="none" xmlns="http://www.w3.org/2000/svg">
<g id="ri:search-eye-line">
<path id="Vector" d="M15.7832 14.3911L20 18.6069L18.6069 20L14.3911 15.7832C12.8224 17.0407 10.8713 17.7246 8.86088 17.7218C3.96968 17.7218 0 13.7521 0 8.86088C0 3.96968 3.96968 0 8.86088 0C13.7521 0 17.7218 3.96968 17.7218 8.86088C17.7246 10.8713 17.0407 12.8224 15.7832 14.3911ZM13.8082 13.6605C15.0577 12.3756 15.7555 10.6532 15.7527 8.86088C15.7527 5.05366 12.6681 1.96909 8.86088 1.96909C5.05366 1.96909 1.96909 5.05366 1.96909 8.86088C1.96909 12.6681 5.05366 15.7527 8.86088 15.7527C10.6532 15.7555 12.3756 15.0577 13.6605 13.8082L13.8082 13.6605ZM10.0207 5.09599C9.73036 5.22713 9.4762 5.42675 9.28 5.67772C9.08379 5.92868 8.95141 6.2235 8.8942 6.53688C8.837 6.85026 8.85668 7.17284 8.95155 7.47694C9.04643 7.78105 9.21367 8.05759 9.43892 8.28284C9.66418 8.5081 9.94072 8.67534 10.2448 8.77022C10.5489 8.86509 10.8715 8.88477 11.1849 8.82757C11.4983 8.77036 11.7931 8.63797 12.0441 8.44177C12.295 8.24557 12.4946 7.99141 12.6258 7.70109C12.8845 8.54152 12.8545 9.44437 12.5406 10.2658C12.2267 11.0872 11.6468 11.7799 10.8935 12.2335C10.1402 12.6872 9.25675 12.8756 8.38389 12.7689C7.51104 12.6621 6.69903 12.2663 6.07723 11.6445C5.45543 11.0227 5.05963 10.2107 4.95288 9.33787C4.84614 8.46502 5.0346 7.58155 5.48824 6.82824C5.94187 6.07493 6.63458 5.49511 7.45599 5.18118C8.2774 4.86725 9.18025 4.83726 10.0207 5.09599Z" fill="#289ADE"/>
</g>
</svg>
