<svg width="19" height="20" viewBox="0 0 19 20" fill="none" xmlns="http://www.w3.org/2000/svg">
<g id="system-uicons:share">
<path id="Vector" d="M14.3571 5.85714L9.52671 1L4.64286 5.85714M9.52671 1.0255V15.5714M5.85714 9.5H3.42857C2.78447 9.5 2.16676 9.75587 1.71131 10.2113C1.25587 10.6668 1 11.2845 1 11.9286V16.7857C1 17.4298 1.25587 18.0475 1.71131 18.503C2.16676 18.9584 2.78447 19.2143 3.42857 19.2143H15.5714C16.2155 19.2143 16.8332 18.9584 17.2887 18.503C17.7441 18.0475 18 17.4298 18 16.7857V11.9286C18 11.2845 17.7441 10.6668 17.2887 10.2113C16.8332 9.75587 16.2155 9.5 15.5714 9.5H13.1429" stroke="#2F2F2F" stroke-width="1.2" stroke-linecap="round" stroke-linejoin="round"/>
</g>
</svg>
